<svg id="logo2" xmlns="http://www.w3.org/2000/svg" xmlns:xlink="http://www.w3.org/1999/xlink" viewBox="0 0 638 172" shape-rendering="geometricPrecision" text-rendering="geometricPrecision">
<style><![CDATA[
#logo2-s-path1_to {animation: logo2-s-path1_to__to 3000ms linear 1 normal forwards}@keyframes logo2-s-path1_to__to { 0% {transform: translate(225.989833px,41.897399px);animation-timing-function: cubic-bezier(0.42,0,0.58,1)} 16.666667% {transform: translate(50.017933px,39.217928px)} 100% {transform: translate(50.017933px,39.217928px)}} #logo2-s-path1 {animation: logo2-s-path1_c_o 3000ms linear 1 normal forwards}@keyframes logo2-s-path1_c_o { 0% {opacity: 0;animation-timing-function: cubic-bezier(0.42,0,0.58,1)} 16.666667% {opacity: 1} 100% {opacity: 1}} #logo2-s-path2_to {animation: logo2-s-path2_to__to 3000ms linear 1 normal forwards}@keyframes logo2-s-path2_to__to { 0% {transform: translate(240.442681px,94.412998px);animation-timing-function: cubic-bezier(0.42,0,0.58,1)} 16.666667% {transform: translate(64.47078px,91.733527px)} 100% {transform: translate(64.47078px,91.733527px)}} #logo2-s-path2 {animation: logo2-s-path2_c_o 3000ms linear 1 normal forwards}@keyframes logo2-s-path2_c_o { 0% {opacity: 0;animation-timing-function: cubic-bezier(0.42,0,0.58,1)} 16.666667% {opacity: 1} 100% {opacity: 1}} #logo2-s-path3_to {animation: logo2-s-path3_to__to 3000ms linear 1 normal forwards}@keyframes logo2-s-path3_to__to { 0% {transform: translate(225.989833px,147.219003px);animation-timing-function: cubic-bezier(0.42,0,0.58,1)} 16.666667% {transform: translate(50.017933px,144.539532px)} 100% {transform: translate(50.017933px,144.539532px)}} #logo2-s-path3 {animation: logo2-s-path3_c_o 3000ms linear 1 normal forwards}@keyframes logo2-s-path3_c_o { 0% {opacity: 0;animation-timing-function: cubic-bezier(0.42,0,0.58,1)} 16.666667% {opacity: 1} 100% {opacity: 1}} #logo2-s-path4_to {animation: logo2-s-path4_to__to 3000ms linear 1 normal forwards}@keyframes logo2-s-path4_to__to { 0% {transform: translate(276.509832px,94.412998px);animation-timing-function: cubic-bezier(0.42,0,0.58,1)} 16.666667% {transform: translate(100.537932px,91.733527px)} 100% {transform: translate(100.537932px,91.733527px)}} #logo2-s-path4 {animation: logo2-s-path4_c_o 3000ms linear 1 normal forwards}@keyframes logo2-s-path4_c_o { 0% {opacity: 0;animation-timing-function: cubic-bezier(0.42,0,0.58,1)} 16.666667% {opacity: 1} 100% {opacity: 1}} #logo2-s-path5 {animation: logo2-s-path5_c_o 3000ms linear 1 normal forwards}@keyframes logo2-s-path5_c_o { 0% {opacity: 0} 16.666667% {opacity: 0;animation-timing-function: cubic-bezier(0.42,0,0.58,1)} 30% {opacity: 1} 100% {opacity: 1}} #logo2-s-path6 {animation: logo2-s-path6_c_o 3000ms linear 1 normal forwards}@keyframes logo2-s-path6_c_o { 0% {opacity: 0} 16.666667% {opacity: 0;animation-timing-function: cubic-bezier(0.42,0,0.58,1)} 30% {opacity: 1} 100% {opacity: 1}} #logo2-s-path7 {animation: logo2-s-path7_c_o 3000ms linear 1 normal forwards}@keyframes logo2-s-path7_c_o { 0% {opacity: 0} 16.666667% {opacity: 0;animation-timing-function: cubic-bezier(0.42,0,0.58,1)} 30% {opacity: 1} 100% {opacity: 1}} #logo2-s-path8 {animation: logo2-s-path8_c_o 3000ms linear 1 normal forwards}@keyframes logo2-s-path8_c_o { 0% {opacity: 0} 16.666667% {opacity: 0;animation-timing-function: cubic-bezier(0.42,0,0.58,1)} 30% {opacity: 1} 100% {opacity: 1}} #logo2-s-path9 {animation: logo2-s-path9_c_o 3000ms linear 1 normal forwards}@keyframes logo2-s-path9_c_o { 0% {opacity: 0} 16.666667% {opacity: 0;animation-timing-function: cubic-bezier(0.42,0,0.58,1)} 30% {opacity: 1} 100% {opacity: 1}} #logo2-s-path10 {animation: logo2-s-path10_c_o 3000ms linear 1 normal forwards}@keyframes logo2-s-path10_c_o { 0% {opacity: 0} 16.666667% {opacity: 0;animation-timing-function: cubic-bezier(0.42,0,0.58,1)} 30% {opacity: 1} 100% {opacity: 1}} #logo2-s-path11 {animation: logo2-s-path11_c_o 3000ms linear 1 normal forwards}@keyframes logo2-s-path11_c_o { 0% {opacity: 0} 16.666667% {opacity: 0;animation-timing-function: cubic-bezier(0.42,0,0.58,1)} 30% {opacity: 1} 100% {opacity: 1}} #logo2-s-path12 {animation: logo2-s-path12_c_o 3000ms linear 1 normal forwards}@keyframes logo2-s-path12_c_o { 0% {opacity: 0} 16.666667% {opacity: 0;animation-timing-function: cubic-bezier(0.42,0,0.58,1)} 30% {opacity: 1} 100% {opacity: 1}} #logo2-s-path13 {animation: logo2-s-path13_c_o 3000ms linear 1 normal forwards}@keyframes logo2-s-path13_c_o { 0% {opacity: 0} 16.666667% {opacity: 0;animation-timing-function: cubic-bezier(0.42,0,0.58,1)} 30% {opacity: 1} 100% {opacity: 1}} #logo2-s-path14 {animation: logo2-s-path14_c_o 3000ms linear 1 normal forwards}@keyframes logo2-s-path14_c_o { 0% {opacity: 0} 16.666667% {opacity: 0;animation-timing-function: cubic-bezier(0.42,0,0.58,1)} 30% {opacity: 1} 100% {opacity: 1}} #logo2-s-path15 {animation: logo2-s-path15_c_o 3000ms linear 1 normal forwards}@keyframes logo2-s-path15_c_o { 0% {opacity: 0} 16.666667% {opacity: 0;animation-timing-function: cubic-bezier(0.42,0,0.58,1)} 30% {opacity: 1} 100% {opacity: 1}} #logo2-s-path16 {animation: logo2-s-path16_c_o 3000ms linear 1 normal forwards}@keyframes logo2-s-path16_c_o { 0% {opacity: 0} 16.666667% {opacity: 0;animation-timing-function: cubic-bezier(0.42,0,0.58,1)} 30% {opacity: 1} 100% {opacity: 1}} #logo2-s-path17 {animation: logo2-s-path17_c_o 3000ms linear 1 normal forwards}@keyframes logo2-s-path17_c_o { 0% {opacity: 0} 16.666667% {opacity: 0;animation-timing-function: cubic-bezier(0.42,0,0.58,1)} 30% {opacity: 1} 100% {opacity: 1}} #logo2-s-path18 {animation: logo2-s-path18_c_o 3000ms linear 1 normal forwards}@keyframes logo2-s-path18_c_o { 0% {opacity: 0} 16.666667% {opacity: 0;animation-timing-function: cubic-bezier(0.42,0,0.58,1)} 30% {opacity: 1} 100% {opacity: 1}} #logo2-s-path19 {animation: logo2-s-path19_c_o 3000ms linear 1 normal forwards}@keyframes logo2-s-path19_c_o { 0% {opacity: 0} 16.666667% {opacity: 0;animation-timing-function: cubic-bezier(0.42,0,0.58,1)} 30% {opacity: 1} 100% {opacity: 1}} #logo2-s-path20 {animation: logo2-s-path20_c_o 3000ms linear 1 normal forwards}@keyframes logo2-s-path20_c_o { 0% {opacity: 0} 16.666667% {opacity: 0;animation-timing-function: cubic-bezier(0.42,0,0.58,1)} 30% {opacity: 1} 100% {opacity: 1}} #logo2-s-path21 {animation: logo2-s-path21_c_o 3000ms linear 1 normal forwards}@keyframes logo2-s-path21_c_o { 0% {opacity: 0} 30% {opacity: 0;animation-timing-function: cubic-bezier(0.42,0,0.58,1)} 40% {opacity: 1} 100% {opacity: 1}} #logo2-s-path22 {animation: logo2-s-path22_c_o 3000ms linear 1 normal forwards}@keyframes logo2-s-path22_c_o { 0% {opacity: 0} 40% {opacity: 0;animation-timing-function: cubic-bezier(0.42,0,0.58,1)} 50% {opacity: 1} 100% {opacity: 1}} #logo2-s-path23 {animation: logo2-s-path23_c_o 3000ms linear 1 normal forwards}@keyframes logo2-s-path23_c_o { 0% {opacity: 0} 50% {opacity: 0;animation-timing-function: cubic-bezier(0.42,0,0.58,1)} 60% {opacity: 1} 100% {opacity: 1}} #logo2-s-path24 {animation: logo2-s-path24_c_o 3000ms linear 1 normal forwards}@keyframes logo2-s-path24_c_o { 0% {opacity: 0} 60% {opacity: 0;animation-timing-function: cubic-bezier(0.42,0,0.58,1)} 70% {opacity: 1} 100% {opacity: 1}} #logo2-s-path25 {animation: logo2-s-path25_c_o 3000ms linear 1 normal forwards}@keyframes logo2-s-path25_c_o { 0% {opacity: 0} 70% {opacity: 0;animation-timing-function: cubic-bezier(0.42,0,0.58,1)} 100% {opacity: 1}} #logo2-s-path26 {animation: logo2-s-path26_c_o 3000ms linear 1 normal forwards}@keyframes logo2-s-path26_c_o { 0% {opacity: 0} 70% {opacity: 0;animation-timing-function: cubic-bezier(0.42,0,0.58,1)} 100% {opacity: 1}} #logo2-s-path27 {animation: logo2-s-path27_c_o 3000ms linear 1 normal forwards}@keyframes logo2-s-path27_c_o { 0% {opacity: 0} 70% {opacity: 0;animation-timing-function: cubic-bezier(0.42,0,0.58,1)} 100% {opacity: 1}} #logo2-s-path28 {animation: logo2-s-path28_c_o 3000ms linear 1 normal forwards}@keyframes logo2-s-path28_c_o { 0% {opacity: 0} 16.666667% {opacity: 0;animation-timing-function: cubic-bezier(0.42,0,0.58,1)} 30% {opacity: 1} 100% {opacity: 1}} #logo2-s-path29 {animation: logo2-s-path29_c_o 3000ms linear 1 normal forwards}@keyframes logo2-s-path29_c_o { 0% {opacity: 0} 16.666667% {opacity: 0;animation-timing-function: cubic-bezier(0.42,0,0.58,1)} 30% {opacity: 1} 100% {opacity: 1}}
]]></style>
<g id="logo2-s-path1_to" transform="translate(225.989833,41.897399)"><path id="logo2-s-path1" d="M50.4107,30.114h-16.9891v36.1448L50.4107,49.2995v-19.1855Z" transform="translate(-41.916151,-48.186399)" opacity="0" fill="#bf7e59"/></g><g id="logo2-s-path2_to" transform="translate(240.442681,94.412998)"><path id="logo2-s-path2" d="M41.3447,96.8419h4.6274l6.7583-6.7463.0318.0318L64.77,78.0897l-.0159-.0159.65-.65.7573-.7434l6.808-6.792l6.3408-6.3826.0457-.0318h.0159L112.644,30.2074l.094-.0934h-24.0855l-.1391.1392L38.8998,79.8449h-21.9107v-49.7309L0,30.114v141.176h16.9891v-74.4481h24.3556Z" transform="translate(-56.368999,-100.701998)" opacity="0" fill="#bf7e59"/></g><g id="logo2-s-path3_to" transform="translate(225.989833,147.219003)"><path id="logo2-s-path3" d="M33.4216,135.718v35.58h16.9891v-19.008L33.4216,135.718Z" transform="translate(-41.916151,-153.508003)" opacity="0" fill="#bf7e59"/></g><g id="logo2-s-path4_to" transform="translate(276.509832,94.412998)"><path id="logo2-s-path4" d="M26.8303,110.589h26.6355l9.887-9.887L75.4063,88.6644L105.775,58.3059l.34-.3399l27.852-27.852h24.075L87.438,100.702l70.604,70.588h-24.075L75.4004,112.744l-9.2211,9.203-1.4391,1.407l1.4232,1.378L112.738,171.29h-24.0775L26.8303,110.589Z" transform="translate(-92.43615,-100.701998)" opacity="0" fill="#bf7e59"/></g><path id="logo2-s-path5" d="M323.657,99.0841v2.3199c-3.103-.233-7.252-.35-12.445-.35-6.673,0-11.634.117-14.882.35v-2.3199c2.164-.0258,4.308-.4211,6.339-1.1688.618-.2494,1.144-.6857,1.503-1.248.358-.5623.533-1.2225.499-1.8886-.198-1.9146-.764-3.7729-1.668-5.4722l-5.94-13.2462h-28.178l-3.953,8.7082c-1.136,2.3275-1.805,4.8552-1.968,7.44-.042.9014.131,1.7999.505,2.621.374.821.939,1.5409,1.648,2.0999c2.07,1.3309,4.463,2.0749,6.923,2.1527v2.3199c-2.336-.233-5.862-.35-10.577-.35-3.379-.054-6.759.063-10.127.35v-2.3179c2.124-.5707,4.004-1.8184,5.355-3.5541c1.712-2.228,3.12-4.6738,4.188-7.2731L286.57,30.114h1.869l27.21,61.5201c2.069,4.8143,4.738,7.283,8.008,7.45ZM296.213,73.7247L283.066,44.1951L269.718,73.7247h26.495Z" opacity="0" fill="#232221"/><path id="logo2-s-path6" d="M359.83,33.0341c-2.068.0311-4.121.34-6.106.9183-.623.2209-1.184.5853-1.639,1.0636s-.791,1.057-.981,1.6894c-.563,2.0811-.8,4.2369-.702,6.3905v46.0417c-.098,2.1589.139,4.3199.702,6.4064.193.6133.533,1.1704.989,1.6236.457.4532,1.016.7889,1.631.9784c1.991.5184,4.049.7375,6.106.65h7.329c2.302.136,4.606-.219,6.761-1.0414s4.11-2.0937,5.735-3.7292c2.993-3.1698,4.794-8.4419,5.405-15.8163h2.685c-.234,2.4031-.349,5.5895-.349,9.5411.029,4.583.302,9.1612.817,13.7148-5.036-.233-13.528-.349-25.477-.349-14.347,0-25.203.116-32.567.349v-2.3888c2.068-.0397,4.121-.3538,6.106-.9342.615-.2106,1.171-.5615,1.626-1.0249s.795-1.0266.994-1.6446c.562-2.0867.798-4.2477.7-6.4065v-46.0436c.098-2.1537-.139-4.3095-.702-6.3906-.199-.6199-.539-1.1851-.994-1.6511-.454-.466-1.011-.8201-1.626-1.0343-1.984-.5813-4.038-.8902-6.106-.9183v-2.3296c3.337.2345,8.225.3498,14.908.3498c6.184,0,11.106-.1166,14.765-.3498l-.01,2.3356Z" opacity="0" fill="#232221"/><path id="logo2-s-path7" d="M479.902,33.9524c-.622.2209-1.183.5853-1.638,1.0636-.456.4783-.792,1.057-.981,1.6894-.564,2.081-.8,4.2369-.702,6.3905v46.0417c-.098,2.1589.139,4.3199.702,6.4064.198.6181.539,1.1812.994,1.6446.454.4635,1.011.8144,1.625,1.0249c1.985.5804,4.039.8946,6.107.9343v2.3132c-3.57-.233-8.497-.349-14.781-.349-6.673,0-11.678.117-14.882.349v-2.3848c2.068-.0397,4.121-.3538,6.106-.9342.614-.2106,1.171-.5615,1.626-1.0249s.795-1.0266.994-1.6446c.563-2.0866.799-4.2476.702-6.4065v-51.0427L437.747,101.988h-1.869L408.897,38.1385v49.7846c-.091,2.2505.168,4.5016.767,6.6728.236.7138.621,1.369,1.13,1.9216.51.5526,1.132.99,1.824,1.2826c2.207.787,4.53,1.1989,6.873,1.2185v2.3194c-2.802-.233-6.757-.35-11.862-.35-4.661,0-8.27.117-10.827.35v-2.2618c2.077-.0255,4.131-.4388,6.056-1.2185.657-.3347,1.234-.8055,1.694-1.381.461-.5755.793-1.2424.976-1.9563.545-2.1804.781-4.4267.701-6.6728v-44.8252c.098-2.1537-.138-4.3095-.701-6.3906-.199-.6199-.539-1.1851-.994-1.6511s-1.011-.8201-1.626-1.0343c-2.003-.5863-4.076-.8953-6.162-.9183v-2.3296c2.569.2332,6.178.3498,10.827.3498c3.71,0,7.003-.1166,9.877-.3498l23.358,56.7237l24.898-56.2904h5.456c6.296,0,11.223-.1166,14.781-.3498v2.3355c-2.041.007-4.072.2878-6.039.8349h-.002Z" opacity="0" fill="#232221"/><path id="logo2-s-path8" d="M564.858,99.0841v2.3199c-3.103-.235-7.242-.35-12.445-.35-6.673,0-11.678.117-14.883.35v-2.3199c2.165-.0241,4.309-.4195,6.339-1.1688.624-.2459,1.155-.6803,1.52-1.2426s.545-1.2244.516-1.894c-.2-1.9141-.767-3.7719-1.668-5.4722l-5.923-13.2462h-28.226l-3.954,8.7082c-1.138,2.3267-1.807,4.8549-1.968,7.4401-.045.9017.127,1.8012.502,2.6227.374.8215.941,1.541,1.651,2.0981c2.064,1.3319,4.452,2.0761,6.908,2.1527v2.3199c-2.32-.235-5.856-.35-10.577-.35-3.374-.054-6.748.062-10.11.35v-2.3179c2.122-.567,3.998-1.8159,5.339-3.554c1.713-2.2281,3.121-4.6739,4.188-7.2731l25.704-58.143h1.852l27.21,61.5201c2.069,4.8143,4.771,7.283,8.025,7.45ZM537.417,73.7247L524.27,44.1951L511.02,73.7247h26.397ZM543.47,0c.717.000348,1.423.180679,2.053.524477.629.343798,1.162.840073,1.55,1.443373.438.6584.674,1.42989.68,2.22029-.077.96545-.408,1.89338-.959,2.69014-.55.79675-1.302,1.43414-2.177,1.84783-2.668,1.48359-5.462,2.72869-8.349,3.72099-5.805,2.3243-10.81,4.5486-15.015,6.6728l-.817-1.5007c3.192-2.4025,5.929-4.6268,8.209-6.6728l4.248-3.79059c2.197-2.17833,4.561-4.1802,7.072-5.98703C541,0.457167,542.215,0.052046,543.47,0Z" opacity="0" fill="#232221"/><path id="logo2-s-path9" d="M638,96.516c-1.305,1.9504-3.012,3.6-5.005,4.838-2.077,1.159-4.429,1.735-6.806,1.668-6.506,0-10.499-2.947-11.978-8.8415l-3.578-14.5104c-1.112-4.3492-2.719-7.2579-4.822-8.7262-2.868-1.6646-6.167-2.4369-9.476-2.2183h-6.672v20.3543c-.098,2.1589.139,4.3199.701,6.4065.196.6169.533,1.1795.985,1.643.452.4634,1.005.815,1.617,1.0265c1.986.5771,4.039.8912,6.106.9342v2.3199c-3.548-.233-8.47-.35-14.764-.35-6.674,0-11.635.117-14.882.35v-2.3338c2.067-.043,4.12-.3571,6.106-.9342.613-.2126,1.168-.5642,1.623-1.0274.454-.4631.796-1.0252.997-1.6421.554-2.0879.785-4.2486.683-6.4065v-46.0436c.103-2.1527-.128-4.3082-.683-6.3906-.195-.6116-.525-1.1711-.967-1.6363-.443-.4652-.985-.8239-1.586-1.0491-1.985-.5783-4.039-.8872-6.106-.9183v-2.3296c3.259.2332,7.985.3498,14.181.3498l11.862-.1172c1.318,0,2.837-.1173,4.538-.1173c8.676,0,15.349,1.6292,20.021,4.8878c2.132,1.3535,3.886,3.2277,5.094,5.446c1.209,2.2183,1.832,4.7077,1.813,7.2337-.039,2.3099-.536,4.5892-1.464,6.7049-.928,2.1158-2.268,4.0259-3.941,5.619-3.603,3.7104-9.514,6.0738-17.734,7.0902c1.552.1511,2.87.3001,3.953.4671c3.524.3851,6.89,1.6661,9.778,3.721c2.673,2.3109,4.475,5.4676,5.105,8.9448l2.554,10.5946c.357,2.0201,1.045,3.9677,2.035,5.7644.289.4993.702.9154,1.199,1.2077.497.2922,1.061.4507,1.638.46c1.952,0,4.071-1.3179,6.406-3.9536L638,96.516ZM592.37,33.8351c-.541.2997-1.012.7104-1.383,1.205s-.634,1.0622-.77,1.6653c-.464,2.0572-.661,4.1657-.584,6.2732v23.3558h7.792c6.829,0,11.501-1.4517,14.013-4.3551c2.722-3.5364,4.064-7.9422,3.777-12.3954c0-5.355-1.418-9.7399-4.238-12.4969-2.821-2.7569-7.458-4.1205-13.898-4.1205-1.614-.0713-3.223.225-4.705.8666l-.004.002Z" transform="translate(-4.568 0)" opacity="0" fill="#232221"/><path id="logo2-s-path10" d="M234.404,141.128h-50.05v1.988h50.05v-1.988Z" opacity="0" fill="#232221"/><path id="logo2-s-path11" d="M638,141.128h-50.051v1.988h50.051v-1.988Z" opacity="0" fill="#232221"/><path id="logo2-s-path12" d="M260.732,132.172v6.957c-.047.794.072,1.589.35,2.335.103.25.266.471.473.645.208.173.455.293.719.349.898.199,1.816.294,2.735.284v.885c-3.337,0-5.722-.133-7.324-.133h-6.28v-.597c.658-.018,1.31-.131,1.936-.333.206-.074.39-.195.539-.355.148-.16.255-.353.312-.564.178-.72.251-1.461.217-2.202v-19.917c.034-.741-.039-1.483-.217-2.203-.062-.208-.171-.399-.318-.558-.148-.159-.33-.282-.533-.36-.625-.203-1.278-.31-1.936-.316v-.795c1.368.083,3.338.117,6.091.117h6.273c2.874-.202,5.737.517,8.176,2.052.908.655,1.642,1.523,2.137,2.528.494,1.005.734,2.116.699,3.236-.001,1.48-.386,2.935-1.117,4.222-.9,1.462-2.215,2.624-3.777,3.337-2.218,1.005-4.641,1.473-7.074,1.368l-2.081.018Zm.9-15.799c-.178.109-.333.254-.453.425-.121.171-.205.364-.248.569-.158.706-.225,1.43-.199,2.153v11.845h1.668c.873.102,1.758-.038,2.557-.406.799-.367,1.482-.948,1.973-1.677.902-1.738,1.328-3.684,1.234-5.64.129-1.974-.262-3.947-1.135-5.722-.415-.619-.988-1.116-1.66-1.439-.672-.322-1.418-.459-2.16-.396-.546-.041-1.093.057-1.591.284l.014.004Z" opacity="0" fill="#232221"/><path id="logo2-s-path13" d="M315.021,142.762c.357.353.82.581,1.317.65v.795c-1.667,0-3.619-.133-6.072-.133-2.719,0-4.755,0-6.09.133v-.733c.739-.007,1.472-.137,2.168-.384.202-.092.372-.243.485-.434s.165-.412.149-.633c-.04-.662-.199-1.312-.467-1.918l-2.403-6.635h-8.726l-1.034,2.753c-.629,1.409-1.013,2.915-1.135,4.454-.042.391.019.786.177,1.146.158.359.408.672.724.905.82.441,1.738.671,2.669.668v.795c-1.819,0-3.47-.133-5.005-.133-1.014-.007-2.028.038-3.037.133v-.717c1.318-.251,2.453-1.668,3.437-4.204l9.127-23.352h2.769l9.71,25.025c.272.691.695,1.312,1.237,1.819Zm-11.195-10.01l-3.976-10.793-4.154,10.793h8.13Z" opacity="0" fill="#232221"/><path id="logo2-s-path14" d="M359.748,142.444c-.628.764-1.421,1.376-2.319,1.789-.955.379-1.977.561-3.004.535-1.293.074-2.576-.275-3.653-.994-.975-.848-1.575-2.048-1.668-3.337l-.733-4.004c-.204-1.483-.626-2.928-1.253-4.287-.229-.449-.586-.82-1.025-1.067s-.941-.36-1.443-.325h-2.63v9.194c-.034.74.039,1.482.217,2.202.052.207.154.399.296.559s.321.283.52.359c.632.204,1.289.317,1.952.334v.795c-1.435,0-3.452-.133-6.038-.133-2.853,0-5.005,0-6.323.133v-.733c.663-.021,1.32-.133,1.952-.334.204-.073.386-.195.532-.355s.25-.354.303-.563c.177-.72.25-1.462.216-2.203v-19.887c.034-.741-.039-1.482-.216-2.202-.059-.208-.165-.398-.31-.558-.145-.159-.325-.283-.525-.361-.632-.201-1.29-.308-1.952-.316v-.795c1.367.084,3.337.117,6.09.117h6.267c2.897-.197,5.791.428,8.349,1.801.881.534,1.603,1.294,2.092,2.2.489.907.728,1.927.691,2.956.003.932-.18,1.854-.538,2.713-.358.86-.884,1.639-1.547,2.293-1.915,1.672-4.349,2.632-6.89,2.719c1.893.059,3.74.598,5.367,1.568c1.217.896,2.037,2.231,2.286,3.721l.924,4.115c.103.784.352,1.543.734,2.236.123.203.299.37.509.481.209.112.446.165.683.153.287-.012.568-.092.817-.235.295-.185.56-.416.783-.683l.487.399Zm-16.85-25.477c-.18.107-.336.251-.457.422-.121.172-.204.367-.244.572-.153.707-.214,1.431-.183,2.153v9.843h1.668c.827.109,1.668.014,2.451-.277.782-.291,1.481-.768,2.037-1.39.902-1.471,1.333-3.183,1.234-4.906.12-1.748-.287-3.491-1.169-5.005-.438-.58-1.018-1.038-1.684-1.33s-1.396-.408-2.12-.338c-.524-.047-1.052.039-1.535.251l.002.005Z" opacity="0" fill="#232221"/><path id="logo2-s-path15" d="M402.276,142.444c.5.411,1.063.738,1.667.969v.795c-1.868,0-3.953-.134-6.239-.134-1.769,0-3.471,0-5.089.134v-.734c.564-.022,1.123-.106,1.668-.25.334-.101.501-.285.501-.551-.063-.361-.211-.702-.433-.994l-5.806-9.416c-.368-.613-.817-1.174-1.334-1.667-.429-.313-.939-.493-1.469-.517v10.01c-.026.741.047,1.481.217,2.202.052.208.154.4.296.559.142.16.321.283.52.36.636.179,1.293.269,1.952.266v.795c-1.435,0-3.452-.133-6.038-.133-2.853,0-5.005,0-6.323.133v-.795c.658-.019,1.31-.131,1.936-.334.205-.073.39-.195.538-.355.148-.159.255-.353.313-.563.169-.721.242-1.462.216-2.203v-19.899c.026-.74-.047-1.481-.216-2.202-.063-.208-.172-.399-.319-.558-.148-.159-.33-.283-.532-.36-.626-.204-1.279-.31-1.936-.316v-.796c1.367.084,3.47.118,6.323.118c2.584,0,4.605,0,6.038-.118v.796c-.668.006-1.331.112-1.967.316-.197.082-.372.207-.514.366-.141.159-.245.347-.303.552-.17.721-.243,1.462-.217,2.202v9.009c1.042-.057,2.05-.391,2.92-.968c1.119-.8,2.129-1.742,3.003-2.803l2.352-2.836c1.034-.986,1.689-2.303,1.852-3.721.007-.299-.061-.594-.198-.859-.137-.266-.338-.492-.585-.66-.653-.417-1.411-.643-2.186-.65v-.749c1.952.083,3.92.117,5.923.117c1.26.029,2.521-.01,3.777-.117v.751c-2.304.618-4.343,1.971-5.806,3.854l-5.005,5.963l9.326,14.511c.33.545.731,1.045,1.193,1.484l-.016-.004Z" opacity="0" fill="#232221"/><path id="logo2-s-path16" d="M443.086,144.213c-1.819,0-4.872-.133-9.16-.133-5.805,0-10.154.044-13.047.133v-.733c.663-.021,1.32-.133,1.952-.334.202-.075.384-.198.529-.358s.25-.352.306-.561c.177-.719.25-1.461.216-2.202v-19.903c.034-.741-.039-1.482-.216-2.202-.062-.206-.169-.396-.313-.554-.145-.159-.323-.284-.522-.365-.632-.201-1.289-.308-1.952-.316v-.795c2.881.089,7.23.128,13.047.117c3.92,0,6.673,0,8.349-.117-.183,2.218-.285,4.188-.285,5.924-.011.908.034,1.816.134,2.719h-.935c-.129-2.167-.876-4.252-2.152-6.007-.57-.581-1.258-1.031-2.019-1.319s-1.575-.407-2.386-.349h-1.668c-.607-.029-1.215.038-1.801.199-.179.063-.342.166-.475.302s-.233.3-.292.481c-.16.604-.227,1.229-.199,1.853v10.006h1.284c.626.035,1.251-.09,1.815-.365.563-.275,1.047-.689,1.405-1.203.768-1.12,1.294-2.387,1.543-3.721h.918c-.083,1.135-.133,2.385-.133,3.776v1.789c-.02,1.894.064,3.788.251,5.673h-.919c-.566-3.52-2.186-5.271-4.888-5.271h-1.284v10.01c-.018.654.067,1.308.251,1.936.06.178.16.341.293.474s.296.233.474.293c.586.161,1.194.228,1.801.199h1.952c.86.035,1.717-.12,2.51-.455.793-.334,1.503-.84,2.078-1.481c1.411-1.921,2.261-4.197,2.452-6.574h.935c-.084.867-.134,2.002-.134,3.338-.017,2.036.077,4.071.285,6.096Z" opacity="0" fill="#232221"/><path id="logo2-s-path17" d="M486.295,122.675c-.013,1.019.026,2.038.117,3.053h-.918c-.319-2.481-1.216-4.853-2.62-6.923-.55-.662-1.246-1.187-2.034-1.535-.787-.347-1.644-.507-2.504-.467h-.918v22.839c-.05.831.064,1.665.334,2.453.114.245.279.463.485.639.206.175.447.304.707.378.898.207,1.816.307,2.737.301v.795c-3.337,0-5.889-.133-7.591-.133-1.701,0-4.12,0-7.325.133v-.734c.921.007,1.839-.094,2.736-.3.26-.074.501-.203.707-.379.206-.175.371-.393.485-.639.27-.788.383-1.621.334-2.452v-22.917h-.867c-1.169-.045-2.327.244-3.337.835-1,.707-1.795,1.667-2.302,2.783-.774,1.692-1.335,3.474-1.667,5.305h-.734c.091-1.015.13-2.034.117-3.053c0-1.988-.099-4.254-.284-6.79c2.436.088,6.556.128,12.362.117c5.805-.011,9.913-.05,12.324-.117-.232,2.262-.347,4.534-.344,6.808Z" opacity="0" fill="#232221"/><path id="logo2-s-path18" d="M529.021,122.675c-.029,1.019.01,2.039.117,3.053h-.918c-.339-2.487-1.259-4.859-2.685-6.923-.551-.662-1.247-1.187-2.034-1.535-.788-.347-1.645-.507-2.504-.467h-.919v22.839c-.049.831.064,1.665.334,2.453.114.245.28.463.486.639.205.175.447.304.707.378.897.207,1.816.307,2.737.301v.795c-3.338,0-5.89-.133-7.591-.133-1.702,0-4.121,0-7.325.133v-.734c.92.007,1.838-.094,2.735-.3.26-.074.501-.203.707-.379s.372-.393.486-.639c.269-.788.383-1.621.334-2.452v-22.917h-.867c-1.169-.045-2.327.244-3.337.835-1.001.707-1.795,1.667-2.302,2.783-.775,1.692-1.335,3.474-1.668,5.305h-.918c.09-1.015.13-2.034.117-3.053c0-1.988-.099-4.254-.284-6.79c2.436.088,6.556.128,12.362.117c5.805-.011,9.913-.05,12.323-.117.008,2.588-.093,4.824-.093,6.808Z" opacity="0" fill="#232221"/><path id="logo2-s-path19" d="M569.664,142.762c.36.35.821.578,1.318.65v.795c-1.59,0-3.62-.133-6.073-.133-2.719,0-4.754,0-6.072.133v-.733c.734-.009,1.461-.138,2.153-.384.203-.089.374-.24.488-.432.113-.191.164-.413.146-.635-.041-.662-.199-1.312-.467-1.918l-2.404-6.641h-8.726l-1.033,2.753c-.63,1.409-1.014,2.915-1.135,4.454-.042.391.019.786.177,1.146s.407.672.723.905c.821.439,1.738.669,2.67.668v.795c-1.819,0-3.471-.133-5.005-.133-1.02-.007-2.039.037-3.054.133v-.717c1.318-.251,2.453-1.668,3.453-4.204l9.11-23.346h2.763l9.71,25.025c.278.693.708,1.314,1.258,1.819Zm-11.195-10.01l-3.953-10.793-4.175,10.793h8.128Z" opacity="0" fill="#232221"/><path id="logo2-s-path20" d="M240.904,97.2275c1.542,1.039,3.268,1.7743,5.085,2.1667v2.0078c-3.216-.203-7.242-.304-12.078-.304-3.625,0-7.092.101-10.371.304v-2.0078c1.204.0037,2.4-.2014,3.534-.6063.307-.1019.576-.2946.772-.5525s.309-.5691.325-.8926c-.084-.8854-.43-1.7256-.994-2.4131L212.543,72.7129c-1.291-2.2033-2.963-4.1598-4.939-5.7783-1.704-1.0156-3.65-1.5545-5.633-1.5603v25.3534c-.085,1.8694.119,3.7408.606,5.5477.172.5353.467,1.023.86,1.4243.394.4014.876.7052,1.408.8874c1.719.5026,3.497.7747,5.287.8091v2.0078c-3.091-.203-7.358-.304-12.799-.304-5.778,0-10.111.101-12.886.304v-2.0078c1.79-.0373,3.568-.3093,5.287-.8091.532-.1822,1.014-.486,1.408-.8874s.688-.889.86-1.4243c.487-1.8069.692-3.6783.607-5.5477v-49.9396c.085-1.8642-.12-3.7303-.607-5.5318-.172-.5369-.466-1.0263-.86-1.4299-.393-.4036-.875-.7103-1.408-.8958-1.719-.5007-3.497-.7681-5.287-.7951v-2.0215c2.888.1988,7.122.3041,12.886.3041c5.374,0,9.64-.1013,12.799-.3041v2.0215c-1.79.0243-3.569.2918-5.287.7951-.547.1774-1.044.4819-1.451.8886-.407.4066-.711.9039-.889,1.451-.487,1.8015-.691,3.6676-.606,5.5318v22.5368c2.23.0104,4.431-.4923,6.435-1.4691s3.757-2.4016,5.122-4.1641l9.642-12.2801c3.419-4.2273,5.129-7.4533,5.129-9.6783c0-2.3395-2.082-3.554-6.242-3.6117v-2.0215c3.852.2028,7.705.3041,11.557.3041c3.683,0,6.543-.1013,8.547-.3041v2.0215c-2.195.3292-4.31,1.0589-6.241,2.1527-2.201,1.3419-4.115,3.1041-5.634,5.186l-16.438,21.048L237.092,93.264c1.021,1.5443,2.314,2.8911,3.814,3.9755l-.002-.012Z" opacity="0" fill="#232221"/><path id="logo2-s-path21" d="M353.694,157.744h3.47v13.347h-1.968v-11.445h-1.502v-1.902Z" opacity="0" fill="#232221"/><path id="logo2-s-path22" d="M370.045,166.685c-.684.001-1.355-.19-1.936-.551-.609-.375-1.114-.897-1.469-1.519-.386-.656-.582-1.407-.567-2.168-.019-.863.207-1.713.65-2.453.398-.695.973-1.27,1.668-1.668.701-.38,1.488-.575,2.286-.566.845-.017,1.679.189,2.419.596.691.402,1.265.977,1.668,1.668.431.726.651,1.558.634,2.403.016.989-.188,1.969-.597,2.87-.394.862-.923,1.656-1.568,2.352-.645.709-1.355,1.357-2.119,1.936-.785.584-1.552,1.135-2.335,1.667l-1.318-1.435c1.019-.519,1.99-1.128,2.902-1.819.73-.553,1.386-1.197,1.952-1.918.413-.518.687-1.134.795-1.789h.596c-.347.662-.844,1.233-1.451,1.668-.645.463-1.416.716-2.21.726Zm.733-1.668c.713.022,1.409-.221,1.952-.684.246-.223.44-.497.569-.802.13-.306.192-.635.183-.967v-.384c-.025-.464-.162-.916-.398-1.317-.228-.39-.556-.713-.95-.935-.41-.238-.878-.359-1.352-.35-.473-.003-.939.118-1.351.35-.412.221-.755.549-.994.95-.241.446-.361.946-.35,1.452-.015.503.112,1.001.368,1.435.23.39.566.708.968.918.417.221.883.335,1.355.334Z" opacity="0" fill="#232221"/><path id="logo2-s-path23" d="M386.944,166.687c-.689,0-1.364-.19-1.952-.551-.605-.38-1.109-.901-1.468-1.518-.378-.66-.574-1.409-.567-2.169-.018-.837.202-1.661.632-2.379.431-.717,1.056-1.298,1.803-1.676.707-.38,1.499-.575,2.302-.567.844-.015,1.678.191,2.419.597.688.405,1.262.979,1.668,1.667.431.727.651,1.559.634,2.404.016.989-.188,1.969-.597,2.87-.394.858-.918,1.651-1.552,2.351-.655.706-1.369,1.353-2.135,1.936-.767.585-1.552,1.135-2.335,1.668l-1.302-1.435c1.019-.519,1.99-1.128,2.902-1.819.725-.553,1.376-1.197,1.936-1.918.413-.519.687-1.135.795-1.789h.584c-.347.661-.844,1.232-1.451,1.668-.684.459-1.497.687-2.32.65l.004.01Zm.718-1.668c.714.027,1.411-.217,1.952-.684.245-.223.439-.497.569-.802s.192-.635.182-.967v-.383c-.013-.704-.306-1.373-.813-1.861s-1.187-.755-1.89-.741c-.473-.003-.939.117-1.352.349-.408.226-.75.553-.994.951-.24.445-.36.945-.349,1.451-.008.502.119.998.367,1.435.24.392.584.71.994.918.41.222.87.336,1.336.334h-.002Z" opacity="0" fill="#232221"/><path id="logo2-s-path24" d="M407.897,157.03l-3.554,5.765-1.169-.551c.186-.1.388-.168.597-.199.21-.025.423-.025.634,0c.488-.017.976.034,1.451.151.466.129.898.356,1.268.668.398.337.707.768.9,1.253.238.599.351,1.24.334,1.884.028.826-.177,1.643-.593,2.357-.416.715-1.026,1.297-1.758,1.68-.657.339-1.381.528-2.119.554-.739.027-1.474-.111-2.153-.403-.625-.218-1.194-.571-1.668-1.034l.994-1.667c.291.346.648.63,1.052.835.431.228.912.348,1.401.349.476.001.945-.114,1.368-.334.413-.237.756-.58.994-.993.257-.458.384-.977.367-1.501.018-.331-.034-.663-.152-.973-.117-.31-.299-.592-.532-.828-.505-.458-1.171-.699-1.852-.668-.322-.03-.646-.03-.968,0-.251.042-.496.109-.734.199h-.083l3.152-4.888.597.266h-4.854v-1.922h7.08Z" opacity="0" fill="#232221"/><path id="logo2-s-path25" d="M429.005,166.844c-.011-.796.195-1.58.596-2.268.401-.672.978-1.222,1.668-1.59.744-.396,1.576-.597,2.419-.585.832-.013,1.653.189,2.385.585.694.363,1.272.914,1.668,1.59.383.693.579,1.475.566,2.268.015.787-.181,1.565-.566,2.252-.388.702-.966,1.28-1.668,1.668-.739.392-1.566.593-2.403.584-.834.016-1.659-.173-2.403-.551-.689-.352-1.267-.89-1.668-1.552-.428-.726-.635-1.561-.596-2.403l.002.002Zm1.902,0c-.01.513.117,1.02.368,1.469.227.423.56.779.968,1.033.409.257.884.39,1.367.384.494.006.98-.127,1.402-.384.402-.254.73-.611.95-1.033.237-.453.357-.958.35-1.469.005-.511-.115-1.016-.35-1.469-.22-.422-.548-.779-.95-1.034-.417-.261-.9-.4-1.392-.4s-.974.139-1.391.4c-.409.267-.742.635-.968,1.068-.235.441-.356.935-.35,1.435h-.004Zm5.005-8.349l-2.552,2.704h-1.252l1.667-2.704h2.137Z" opacity="0" fill="#232221"/><path id="logo2-s-path26" d="M447.588,158.994h1.918v3.721h2.286v1.469h-2.286v6.84h-1.918v-6.842h-1.501v-1.469h1.501v-3.719Z" opacity="0" fill="#232221"/><path id="logo2-s-path27" d="M463.571,171.222c-.737.011-1.465-.161-2.119-.501-.644-.335-1.177-.851-1.534-1.484-.392-.733-.587-1.555-.567-2.386-.027-.845.179-1.682.597-2.419.361-.662.906-1.206,1.568-1.568.66-.355,1.399-.538,2.149-.533.7-.021,1.392.165,1.987.535.507.311.931.74,1.235,1.25l-.133.316.182-1.769h1.668v8.349h-1.801v-2.169l.217.501c-.106.182-.235.351-.384.501-.212.24-.453.453-.717.634-.312.23-.655.415-1.018.551-.43.137-.879.202-1.33.192Zm.501-1.552c.443.01.882-.081,1.284-.266.366-.166.686-.418.934-.734.252-.337.428-.724.517-1.135v-1.668c-.103-.392-.295-.756-.561-1.063-.266-.306-.599-.548-.973-.706-.39-.169-.81-.254-1.235-.25-.483-.003-.958.122-1.377.362s-.766.587-1.008,1.005c-.261.463-.394.988-.383,1.519-.004.515.128,1.022.383,1.469.246.436.603.798,1.034,1.052.418.261.898.405,1.391.417l-.006-.002Z" opacity="0" fill="#232221"/><path id="logo2-s-path28" d="M334.506,157.03h-150.152v1.988h150.152v-1.988Z" opacity="0" fill="#232221"/><path id="logo2-s-path29" d="M638,157.03h-150.153v1.988h150.153v-1.988Z" opacity="0" fill="#232221"/></svg>
