<svg width="638" height="172" viewBox="0 0 638 172" fill="none" xmlns="http://www.w3.org/2000/svg">
<path d="M50.4107 30.114H33.4216V66.2588L50.4107 49.2995V30.114Z" fill="#BF7E59"/>
<path d="M41.3447 96.8419H45.9721L52.7304 90.0956L52.7622 90.1274L64.77 78.0897L64.7541 78.0738L65.4041 77.4238L66.1614 76.6804L72.9694 69.8884L79.3102 63.5058L79.3559 63.474H79.3718L112.644 30.2074L112.738 30.114H88.6525L88.5134 30.2532L38.8998 79.8449H16.9891V30.114H0V171.29H16.9891V96.8419H41.3447Z" fill="#BF7E59"/>
<path d="M33.4216 135.718V171.298H50.4107V152.29L33.4216 135.718Z" fill="#BF7E59"/>
<path d="M26.8303 110.589H53.4658L63.3528 100.702L75.4063 88.6644L105.775 58.3059L106.115 57.966L133.967 30.114H158.042L87.438 100.702L158.042 171.29H133.967L75.4004 112.744L66.1793 121.947L64.7402 123.354L66.1634 124.732L112.738 171.29H88.6605L26.8303 110.589Z" fill="#BF7E59"/>
<path d="M323.657 99.0841V101.404C320.554 101.171 316.405 101.054 311.212 101.054C304.539 101.054 299.578 101.171 296.33 101.404V99.0841C298.494 99.0583 300.638 98.663 302.669 97.9153C303.287 97.6659 303.813 97.2296 304.172 96.6673C304.53 96.105 304.705 95.4448 304.671 94.7787C304.473 92.8641 303.907 91.0058 303.003 89.3065L297.063 76.0603H268.885L264.932 84.7685C263.796 87.096 263.127 89.6237 262.964 92.2085C262.922 93.1099 263.095 94.0084 263.469 94.8295C263.843 95.6505 264.408 96.3704 265.117 96.9294C267.187 98.2603 269.58 99.0043 272.04 99.0821V101.402C269.704 101.169 266.178 101.052 261.463 101.052C258.084 100.998 254.704 101.115 251.336 101.402V99.0841C253.46 98.5134 255.34 97.2657 256.691 95.53C258.403 93.302 259.811 90.8562 260.879 88.2569L286.57 30.114H288.439L315.649 91.6341C317.718 96.4484 320.387 98.9171 323.657 99.0841ZM296.213 73.7247L283.066 44.1951L269.718 73.7247H296.213Z" fill="#232221"/>
<path d="M359.83 33.0341C357.762 33.0652 355.709 33.3741 353.724 33.9524C353.101 34.1733 352.54 34.5377 352.085 35.016C351.63 35.4943 351.294 36.073 351.104 36.7054C350.541 38.7865 350.304 40.9423 350.402 43.0959V89.1376C350.304 91.2965 350.541 93.4575 351.104 95.544C351.297 96.1573 351.637 96.7144 352.093 97.1676C352.55 97.6208 353.109 97.9565 353.724 98.146C355.715 98.6644 357.773 98.8835 359.83 98.796H367.159C369.461 98.932 371.765 98.577 373.92 97.7546C376.075 96.9321 378.03 95.6609 379.655 94.0254C382.648 90.8556 384.449 85.5835 385.06 78.2091H387.745C387.511 80.6122 387.396 83.7986 387.396 87.7502C387.425 92.3332 387.698 96.9114 388.213 101.465C383.177 101.232 374.685 101.116 362.736 101.116C348.389 101.116 337.533 101.232 330.169 101.465V99.0762C332.237 99.0365 334.29 98.7224 336.275 98.142C336.89 97.9314 337.446 97.5805 337.901 97.1171C338.356 96.6537 338.696 96.0905 338.895 95.4725C339.457 93.3858 339.693 91.2248 339.595 89.066V43.0224C339.693 40.8687 339.456 38.7129 338.893 36.6318C338.694 36.0119 338.354 35.4467 337.899 34.9807C337.445 34.5147 336.888 34.1606 336.273 33.9464C334.289 33.3651 332.235 33.0562 330.167 33.0281V30.6985C333.504 30.933 338.392 31.0483 345.075 31.0483C351.259 31.0483 356.181 30.9317 359.84 30.6985L359.83 33.0341Z" fill="#232221"/>
<path d="M479.902 33.9524C479.28 34.1733 478.719 34.5377 478.264 35.016C477.808 35.4943 477.472 36.073 477.283 36.7054C476.719 38.7864 476.483 40.9423 476.581 43.0959V89.1376C476.483 91.2965 476.72 93.4575 477.283 95.544C477.481 96.1621 477.822 96.7252 478.277 97.1886C478.731 97.6521 479.288 98.003 479.902 98.2135C481.887 98.7939 483.941 99.1081 486.009 99.1478V101.461C482.439 101.228 477.512 101.112 471.228 101.112C464.555 101.112 459.55 101.229 456.346 101.461V99.0762C458.414 99.0365 460.467 98.7224 462.452 98.142C463.066 97.9314 463.623 97.5805 464.078 97.1171C464.533 96.6537 464.873 96.0905 465.072 95.4725C465.635 93.3859 465.871 91.2249 465.774 89.066V38.0233L437.747 101.988H435.878L408.897 38.1385V87.9231C408.806 90.1736 409.065 92.4247 409.664 94.5959C409.9 95.3097 410.285 95.9649 410.794 96.5175C411.304 97.0701 411.926 97.5075 412.618 97.8001C414.825 98.5871 417.148 98.999 419.491 99.0186V101.338C416.689 101.105 412.734 100.988 407.629 100.988C402.968 100.988 399.359 101.105 396.802 101.338V99.0762C398.879 99.0507 400.933 98.6374 402.858 97.8577C403.515 97.523 404.092 97.0522 404.552 96.4767C405.013 95.9012 405.345 95.2343 405.528 94.5204C406.073 92.34 406.309 90.0937 406.229 87.8476V43.0224C406.327 40.8687 406.091 38.7129 405.528 36.6318C405.329 36.0119 404.989 35.4467 404.534 34.9807C404.079 34.5147 403.523 34.1606 402.908 33.9464C400.905 33.3601 398.832 33.0511 396.746 33.0281V30.6985C399.315 30.9317 402.924 31.0483 407.573 31.0483C411.283 31.0483 414.576 30.9317 417.45 30.6985L440.808 87.4222L465.706 31.1318H471.162C477.458 31.1318 482.385 31.0152 485.943 30.782V33.1175C483.902 33.1245 481.871 33.4053 479.904 33.9524H479.902Z" fill="#232221"/>
<path d="M564.858 99.0841V101.404C561.755 101.169 557.616 101.054 552.413 101.054C545.74 101.054 540.735 101.171 537.53 101.404V99.0841C539.695 99.06 541.839 98.6646 543.869 97.9153C544.493 97.6694 545.024 97.235 545.389 96.6727C545.754 96.1104 545.934 95.4483 545.905 94.7787C545.705 92.8646 545.138 91.0068 544.237 89.3065L538.314 76.0603H510.088L506.134 84.7685C504.996 87.0952 504.327 89.6234 504.166 92.2086C504.121 93.1103 504.293 94.0098 504.668 94.8313C505.042 95.6528 505.609 96.3723 506.319 96.9294C508.383 98.2613 510.771 99.0055 513.227 99.0821V101.402C510.907 101.167 507.371 101.052 502.65 101.052C499.276 100.998 495.902 101.114 492.54 101.402V99.0841C494.662 98.5171 496.538 97.2682 497.879 95.5301C499.592 93.302 501 90.8562 502.067 88.257L527.771 30.114H529.623L556.833 91.6341C558.902 96.4484 561.604 98.9171 564.858 99.0841ZM537.417 73.7247L524.27 44.1951L511.02 73.7247H537.417ZM543.47 0C544.187 0.000347657 544.893 0.180679 545.523 0.524477C546.152 0.868275 546.685 1.36455 547.073 1.96785C547.511 2.62625 547.747 3.39774 547.753 4.18814C547.676 5.15359 547.345 6.08152 546.794 6.87828C546.244 7.67503 545.492 8.31242 544.617 8.72611C541.949 10.2097 539.155 11.4548 536.268 12.4471C530.463 14.7714 525.458 16.9957 521.253 19.1199L520.436 17.6192C523.628 15.2167 526.365 12.9924 528.645 10.9464L532.893 7.15581C535.09 4.97748 537.454 2.97561 539.965 1.16878C541 0.457167 542.215 0.0520462 543.47 0Z" fill="#232221"/>
<path d="M638 96.516C636.695 98.4664 634.988 100.116 632.995 101.354C630.918 102.513 628.566 103.089 626.189 103.022C619.683 103.022 615.69 100.075 614.211 94.1805L610.633 79.6701C609.521 75.3209 607.914 72.4122 605.811 70.9439C602.943 69.2793 599.644 68.507 596.335 68.7256H589.663V89.0799C589.565 91.2388 589.802 93.3998 590.364 95.4864C590.56 96.1033 590.897 96.6659 591.349 97.1294C591.801 97.5928 592.354 97.9444 592.966 98.1559C594.952 98.733 597.005 99.0471 599.072 99.0901V101.41C595.524 101.177 590.602 101.06 584.308 101.06C577.634 101.06 572.673 101.177 569.426 101.41V99.0762C571.493 99.0332 573.546 98.7191 575.532 98.142C576.145 97.9294 576.7 97.5778 577.155 97.1146C577.609 96.6515 577.951 96.0894 578.152 95.4725C578.706 93.3846 578.937 91.2239 578.835 89.066V43.0224C578.938 40.8697 578.707 38.7142 578.152 36.6318C577.957 36.0202 577.627 35.4607 577.185 34.9955C576.742 34.5303 576.2 34.1716 575.599 33.9464C573.614 33.3681 571.56 33.0592 569.493 33.0281V30.6985C572.752 30.9317 577.478 31.0483 583.674 31.0483L595.536 30.9311C596.854 30.9311 598.373 30.8138 600.074 30.8138C608.75 30.8138 615.423 32.443 620.095 35.7016C622.227 37.0551 623.981 38.9293 625.189 41.1476C626.398 43.3659 627.021 45.8553 627.002 48.3813C626.963 50.6912 626.466 52.9705 625.538 55.0862C624.61 57.202 623.27 59.1121 621.597 60.7052C617.994 64.4156 612.083 66.779 603.863 67.7954C605.415 67.9465 606.733 68.0955 607.816 68.2625C611.34 68.6476 614.706 69.9286 617.594 71.9835C620.267 74.2944 622.069 77.4511 622.699 80.9283L625.253 91.5229C625.61 93.543 626.298 95.4906 627.288 97.2873C627.577 97.7866 627.99 98.2027 628.487 98.495C628.984 98.7872 629.548 98.9457 630.125 98.955C632.077 98.955 634.196 97.6371 636.531 95.0014L638 96.516ZM592.37 33.8351C591.829 34.1348 591.358 34.5455 590.987 35.0401C590.616 35.5348 590.353 36.1023 590.217 36.7054C589.753 38.7626 589.556 40.8711 589.633 42.9786V66.3344H597.425C604.254 66.3344 608.926 64.8827 611.438 61.9793C614.16 58.4429 615.502 54.0371 615.215 49.5839C615.215 44.2289 613.797 39.844 610.977 37.087C608.156 34.3301 603.519 32.9665 597.079 32.9665C595.465 32.8952 593.856 33.1915 592.374 33.8331L592.37 33.8351Z" fill="#232221"/>
<path d="M234.404 141.128H184.354V143.116H234.404V141.128Z" fill="#232221"/>
<path d="M638 141.128H587.949V143.116H638V141.128Z" fill="#232221"/>
<path d="M260.732 132.172V139.129C260.685 139.923 260.804 140.718 261.082 141.464C261.185 141.714 261.348 141.935 261.555 142.109C261.763 142.282 262.01 142.402 262.274 142.458C263.172 142.657 264.09 142.752 265.009 142.742V143.627C261.672 143.627 259.287 143.494 257.685 143.494H251.405V142.897C252.063 142.879 252.715 142.766 253.341 142.564C253.547 142.49 253.731 142.369 253.88 142.209C254.028 142.049 254.135 141.856 254.192 141.645C254.37 140.925 254.443 140.184 254.409 139.443V119.526C254.443 118.785 254.37 118.043 254.192 117.323C254.13 117.115 254.021 116.924 253.874 116.765C253.726 116.606 253.544 116.483 253.341 116.405C252.716 116.202 252.063 116.095 251.405 116.089V115.294C252.773 115.377 254.743 115.411 257.496 115.411H263.769C266.643 115.209 269.506 115.928 271.945 117.463C272.853 118.118 273.587 118.986 274.082 119.991C274.576 120.996 274.816 122.107 274.781 123.227C274.78 124.707 274.395 126.162 273.664 127.449C272.764 128.911 271.449 130.073 269.887 130.786C267.669 131.791 265.246 132.259 262.813 132.154L260.732 132.172ZM261.632 116.373C261.454 116.482 261.299 116.627 261.179 116.798C261.058 116.969 260.974 117.162 260.931 117.367C260.773 118.073 260.706 118.797 260.732 119.52V131.365H262.4C263.273 131.467 264.158 131.327 264.957 130.959C265.756 130.592 266.439 130.011 266.93 129.282C267.832 127.544 268.258 125.598 268.164 123.642C268.293 121.668 267.902 119.695 267.029 117.92C266.614 117.301 266.041 116.804 265.369 116.481C264.697 116.159 263.951 116.022 263.209 116.085C262.663 116.044 262.116 116.142 261.618 116.369L261.632 116.373Z" fill="#232221"/>
<path d="M315.021 142.762C315.378 143.115 315.841 143.343 316.338 143.412V144.207C314.671 144.207 312.719 144.074 310.266 144.074C307.547 144.074 305.511 144.074 304.176 144.207V143.474C304.915 143.467 305.648 143.337 306.344 143.09C306.546 142.998 306.716 142.847 306.829 142.656C306.942 142.465 306.994 142.244 306.978 142.023C306.938 141.361 306.779 140.711 306.511 140.105L304.108 133.47H295.382L294.348 136.223C293.719 137.632 293.335 139.138 293.213 140.677C293.171 141.068 293.232 141.463 293.39 141.823C293.548 142.182 293.798 142.495 294.114 142.728C294.934 143.169 295.852 143.399 296.783 143.396V144.191C294.964 144.191 293.313 144.058 291.778 144.058C290.764 144.051 289.75 144.096 288.741 144.191V143.474C290.059 143.223 291.194 141.806 292.178 139.27L301.305 115.918H304.074L313.784 140.943C314.056 141.634 314.479 142.255 315.021 142.762ZM303.826 132.752L299.85 121.959L295.696 132.752H303.826Z" fill="#232221"/>
<path d="M359.748 142.444C359.12 143.208 358.327 143.82 357.429 144.233C356.474 144.612 355.452 144.794 354.425 144.768C353.132 144.842 351.849 144.493 350.772 143.774C349.797 142.926 349.197 141.726 349.104 140.437L348.371 136.433C348.167 134.95 347.745 133.505 347.118 132.146C346.889 131.697 346.532 131.326 346.093 131.079C345.654 130.832 345.152 130.719 344.65 130.754H342.02V139.948C341.986 140.688 342.059 141.43 342.237 142.15C342.289 142.357 342.391 142.549 342.533 142.709C342.675 142.869 342.854 142.992 343.053 143.068C343.685 143.272 344.342 143.385 345.005 143.402V144.197C343.57 144.197 341.553 144.064 338.967 144.064C336.114 144.064 333.962 144.064 332.644 144.197V143.464C333.307 143.443 333.964 143.331 334.596 143.13C334.8 143.057 334.982 142.935 335.128 142.775C335.274 142.615 335.378 142.421 335.431 142.212C335.608 141.492 335.681 140.75 335.647 140.009V120.122C335.681 119.381 335.608 118.64 335.431 117.92C335.372 117.712 335.266 117.522 335.121 117.362C334.976 117.203 334.796 117.079 334.596 117.001C333.964 116.8 333.306 116.693 332.644 116.685V115.89C334.011 115.974 335.981 116.007 338.734 116.007H345.001C347.898 115.81 350.792 116.435 353.35 117.808C354.231 118.342 354.953 119.102 355.442 120.008C355.931 120.915 356.17 121.935 356.133 122.964C356.136 123.896 355.953 124.818 355.595 125.677C355.237 126.537 354.711 127.316 354.048 127.97C352.133 129.642 349.699 130.602 347.158 130.689C349.051 130.748 350.898 131.287 352.525 132.257C353.742 133.153 354.562 134.488 354.811 135.978L355.735 140.093C355.838 140.877 356.087 141.636 356.469 142.329C356.592 142.532 356.768 142.699 356.978 142.81C357.187 142.922 357.424 142.975 357.661 142.963C357.948 142.951 358.229 142.871 358.478 142.728C358.773 142.543 359.038 142.312 359.261 142.045L359.748 142.444ZM342.898 116.967C342.718 117.074 342.562 117.218 342.441 117.389C342.32 117.561 342.237 117.756 342.197 117.961C342.044 118.668 341.983 119.392 342.014 120.114V129.957H343.682C344.509 130.066 345.35 129.971 346.133 129.68C346.915 129.389 347.614 128.912 348.17 128.29C349.072 126.819 349.503 125.107 349.404 123.384C349.524 121.636 349.117 119.893 348.235 118.379C347.797 117.799 347.217 117.341 346.551 117.049C345.885 116.757 345.155 116.641 344.431 116.711C343.907 116.664 343.379 116.75 342.896 116.962L342.898 116.967Z" fill="#232221"/>
<path d="M402.276 142.444C402.776 142.855 403.339 143.182 403.943 143.413V144.208C402.075 144.208 399.99 144.074 397.704 144.074C395.935 144.074 394.233 144.074 392.615 144.208V143.474C393.179 143.452 393.738 143.368 394.283 143.224C394.617 143.123 394.784 142.939 394.784 142.673C394.721 142.312 394.573 141.971 394.351 141.679L388.545 132.263C388.177 131.65 387.728 131.089 387.211 130.596C386.782 130.283 386.272 130.103 385.742 130.079V140.089C385.716 140.83 385.789 141.57 385.959 142.291C386.011 142.499 386.113 142.691 386.255 142.85C386.397 143.01 386.576 143.133 386.775 143.21C387.411 143.389 388.068 143.479 388.727 143.476V144.271C387.292 144.271 385.275 144.138 382.689 144.138C379.836 144.138 377.684 144.138 376.366 144.271V143.476C377.024 143.457 377.676 143.345 378.302 143.142C378.507 143.069 378.692 142.947 378.84 142.787C378.988 142.628 379.095 142.434 379.153 142.224C379.322 141.503 379.395 140.762 379.369 140.021V120.122C379.395 119.382 379.322 118.641 379.153 117.92C379.09 117.712 378.981 117.521 378.834 117.362C378.686 117.203 378.504 117.079 378.302 117.002C377.676 116.798 377.023 116.692 376.366 116.686V115.89C377.733 115.974 379.836 116.008 382.689 116.008C385.273 116.008 387.294 116.008 388.727 115.89V116.686C388.059 116.692 387.396 116.798 386.76 117.002C386.563 117.084 386.388 117.209 386.246 117.368C386.105 117.527 386.001 117.715 385.943 117.92C385.773 118.641 385.7 119.382 385.726 120.122V129.131C386.768 129.074 387.776 128.74 388.646 128.163C389.765 127.363 390.775 126.421 391.649 125.36L394.001 122.524C395.035 121.538 395.69 120.221 395.853 118.803C395.86 118.504 395.792 118.209 395.655 117.944C395.518 117.678 395.317 117.452 395.07 117.284C394.417 116.867 393.659 116.641 392.884 116.634V115.885C394.836 115.968 396.804 116.002 398.807 116.002C400.067 116.031 401.328 115.992 402.584 115.885V116.636C400.28 117.254 398.241 118.607 396.778 120.49L391.773 126.453L401.099 140.964C401.429 141.509 401.83 142.009 402.292 142.448L402.276 142.444Z" fill="#232221"/>
<path d="M443.086 144.213C441.267 144.213 438.214 144.08 433.926 144.08C428.121 144.08 423.772 144.124 420.879 144.213V143.48C421.542 143.459 422.199 143.347 422.831 143.146C423.033 143.071 423.215 142.948 423.36 142.788C423.505 142.628 423.61 142.436 423.666 142.227C423.843 141.508 423.916 140.766 423.882 140.025V120.122C423.916 119.381 423.843 118.64 423.666 117.92C423.604 117.714 423.497 117.524 423.353 117.366C423.208 117.207 423.03 117.082 422.831 117.001C422.199 116.8 421.542 116.693 420.879 116.685V115.89C423.76 115.979 428.109 116.018 433.926 116.007C437.846 116.007 440.599 116.007 442.275 115.89C442.092 118.108 441.99 120.078 441.99 121.814C441.979 122.722 442.024 123.63 442.124 124.533H441.189C441.06 122.366 440.313 120.281 439.037 118.526C438.467 117.945 437.779 117.495 437.018 117.207C436.257 116.919 435.443 116.8 434.632 116.858H432.964C432.357 116.829 431.749 116.896 431.163 117.057C430.984 117.12 430.821 117.223 430.688 117.359C430.555 117.495 430.455 117.659 430.396 117.84C430.236 118.444 430.169 119.069 430.197 119.693V129.699H431.481C432.107 129.734 432.732 129.609 433.296 129.334C433.859 129.059 434.343 128.645 434.701 128.131C435.469 127.011 435.995 125.744 436.244 124.41H437.162C437.079 125.545 437.029 126.795 437.029 128.186V129.975C437.009 131.869 437.093 133.763 437.28 135.648H436.361C435.795 132.128 434.175 130.377 431.473 130.377H430.189V140.387C430.171 141.041 430.256 141.695 430.44 142.323C430.5 142.501 430.6 142.664 430.733 142.797C430.866 142.93 431.029 143.03 431.207 143.09C431.793 143.251 432.401 143.318 433.008 143.289H434.96C435.82 143.324 436.677 143.169 437.47 142.834C438.263 142.5 438.973 141.994 439.548 141.353C440.959 139.432 441.809 137.156 442 134.779H442.935C442.851 135.646 442.801 136.781 442.801 138.117C442.784 140.153 442.878 142.188 443.086 144.213Z" fill="#232221"/>
<path d="M486.295 122.675C486.282 123.694 486.321 124.713 486.412 125.728H485.494C485.175 123.247 484.278 120.875 482.874 118.805C482.324 118.143 481.628 117.618 480.84 117.27C480.053 116.923 479.196 116.763 478.336 116.803H477.418V139.642C477.368 140.473 477.482 141.307 477.752 142.095C477.866 142.34 478.031 142.558 478.237 142.734C478.443 142.909 478.684 143.038 478.944 143.112C479.842 143.319 480.76 143.419 481.681 143.413V144.208C478.344 144.208 475.792 144.075 474.09 144.075C472.389 144.075 469.97 144.075 466.765 144.208V143.474C467.686 143.481 468.604 143.38 469.501 143.174C469.761 143.1 470.002 142.971 470.208 142.795C470.414 142.62 470.579 142.402 470.693 142.156C470.963 141.368 471.076 140.535 471.027 139.704V116.787H470.16C468.991 116.742 467.833 117.031 466.823 117.622C465.823 118.329 465.028 119.289 464.521 120.405C463.747 122.097 463.186 123.879 462.854 125.71H462.12C462.211 124.695 462.25 123.676 462.237 122.657C462.237 120.669 462.138 118.403 461.953 115.867C464.389 115.955 468.509 115.995 474.315 115.984C480.12 115.973 484.228 115.934 486.639 115.867C486.407 118.129 486.292 120.401 486.295 122.675Z" fill="#232221"/>
<path d="M529.021 122.675C528.992 123.694 529.031 124.714 529.138 125.728H528.22C527.881 123.241 526.961 120.869 525.535 118.805C524.984 118.143 524.288 117.618 523.501 117.27C522.713 116.923 521.856 116.763 520.997 116.803H520.078V139.642C520.029 140.473 520.142 141.307 520.412 142.095C520.526 142.34 520.692 142.558 520.898 142.734C521.103 142.909 521.345 143.038 521.605 143.112C522.502 143.319 523.421 143.419 524.342 143.413V144.208C521.004 144.208 518.452 144.075 516.751 144.075C515.049 144.075 512.63 144.075 509.426 144.208V143.474C510.346 143.481 511.264 143.38 512.161 143.174C512.421 143.1 512.662 142.971 512.868 142.795C513.074 142.619 513.24 142.402 513.354 142.156C513.623 141.368 513.737 140.535 513.688 139.704V116.787H512.821C511.652 116.742 510.494 117.031 509.484 117.622C508.483 118.329 507.689 119.289 507.182 120.405C506.407 122.097 505.847 123.879 505.514 125.71H504.596C504.686 124.695 504.726 123.676 504.713 122.657C504.713 120.669 504.614 118.403 504.429 115.867C506.865 115.955 510.985 115.995 516.791 115.984C522.596 115.973 526.704 115.934 529.114 115.867C529.122 118.455 529.021 120.691 529.021 122.675Z" fill="#232221"/>
<path d="M569.664 142.762C570.024 143.112 570.485 143.34 570.982 143.412V144.207C569.392 144.207 567.362 144.074 564.909 144.074C562.19 144.074 560.155 144.074 558.837 144.207V143.474C559.571 143.465 560.298 143.336 560.99 143.09C561.193 143.001 561.364 142.85 561.478 142.658C561.591 142.467 561.642 142.245 561.624 142.023C561.583 141.361 561.425 140.711 561.157 140.105L558.753 133.464H550.027L548.994 136.217C548.364 137.626 547.98 139.132 547.859 140.671C547.817 141.062 547.878 141.457 548.036 141.817C548.194 142.177 548.443 142.489 548.759 142.722C549.58 143.161 550.497 143.391 551.429 143.39V144.185C549.61 144.185 547.958 144.052 546.424 144.052C545.404 144.045 544.385 144.089 543.37 144.185V143.468C544.688 143.217 545.823 141.8 546.823 139.264L555.933 115.918H558.696L568.406 140.943C568.684 141.636 569.114 142.257 569.664 142.762ZM558.469 132.752L554.516 121.959L550.341 132.752H558.469Z" fill="#232221"/>
<path d="M240.904 97.2275C242.446 98.2665 244.172 99.0018 245.989 99.3942V101.402C242.773 101.199 238.747 101.098 233.911 101.098C230.286 101.098 226.819 101.199 223.54 101.402V99.3942C224.744 99.3979 225.94 99.1928 227.074 98.7879C227.381 98.686 227.65 98.4933 227.846 98.2354C228.042 97.9775 228.155 97.6663 228.171 97.3428C228.087 96.4574 227.741 95.6172 227.177 94.9297L212.543 72.7129C211.252 70.5096 209.58 68.5531 207.604 66.9346C205.9 65.919 203.954 65.3801 201.971 65.3743V90.7277C201.886 92.5971 202.09 94.4685 202.577 96.2754C202.749 96.8107 203.044 97.2984 203.437 97.6997C203.831 98.1011 204.313 98.4049 204.845 98.5871C206.564 99.0897 208.342 99.3618 210.132 99.3962V101.404C207.041 101.201 202.774 101.1 197.333 101.1C191.555 101.1 187.222 101.201 184.447 101.404V99.3962C186.237 99.3589 188.015 99.0869 189.734 98.5871C190.266 98.4049 190.748 98.1011 191.142 97.6997C191.536 97.2984 191.83 96.8107 192.002 96.2754C192.489 94.4685 192.694 92.5971 192.609 90.7277V40.7881C192.694 38.9239 192.489 37.0578 192.002 35.2563C191.83 34.7194 191.536 34.23 191.142 33.8264C190.749 33.4228 190.267 33.1161 189.734 32.9306C188.015 32.4299 186.237 32.1625 184.447 32.1355V30.114C187.335 30.3128 191.569 30.4181 197.333 30.4181C202.707 30.4181 206.973 30.3168 210.132 30.114V32.1355C208.342 32.1598 206.563 32.4273 204.845 32.9306C204.298 33.108 203.801 33.4125 203.394 33.8192C202.987 34.2258 202.683 34.7231 202.505 35.2702C202.018 37.0717 201.814 38.9378 201.899 40.802V63.3388C204.129 63.3492 206.33 62.8465 208.334 61.8697C210.338 60.8929 212.091 59.4681 213.456 57.7056L223.098 45.4255C226.517 41.1982 228.227 37.9722 228.227 35.7472C228.227 33.4077 226.145 32.1932 221.985 32.1355V30.114C225.837 30.3168 229.69 30.4181 233.542 30.4181C237.225 30.4181 240.085 30.3168 242.089 30.114V32.1355C239.894 32.4647 237.779 33.1944 235.848 34.2882C233.647 35.6301 231.733 37.3923 230.214 39.4742L213.776 60.5222L237.092 93.264C238.113 94.8083 239.406 96.1551 240.906 97.2395L240.904 97.2275Z" fill="#232221"/>
<path d="M353.694 157.744H357.164V171.091H355.196V159.646H353.694V157.744Z" fill="#232221"/>
<path d="M370.045 166.685C369.361 166.686 368.69 166.495 368.109 166.134C367.5 165.759 366.995 165.237 366.64 164.615C366.254 163.959 366.058 163.208 366.073 162.447C366.054 161.584 366.28 160.734 366.723 159.994C367.121 159.299 367.696 158.724 368.391 158.326C369.092 157.946 369.879 157.751 370.677 157.76C371.522 157.743 372.356 157.949 373.096 158.356C373.787 158.758 374.361 159.333 374.764 160.024C375.195 160.75 375.415 161.582 375.398 162.427C375.414 163.416 375.21 164.396 374.801 165.297C374.407 166.159 373.878 166.953 373.233 167.649C372.588 168.358 371.878 169.006 371.114 169.585C370.329 170.169 369.562 170.72 368.779 171.252L367.461 169.817C368.48 169.298 369.451 168.689 370.363 167.998C371.093 167.445 371.749 166.801 372.315 166.08C372.728 165.562 373.002 164.946 373.11 164.291H373.706C373.359 164.953 372.862 165.524 372.255 165.959C371.61 166.422 370.839 166.675 370.045 166.685ZM370.778 165.017C371.491 165.039 372.187 164.796 372.73 164.333C372.976 164.11 373.17 163.836 373.299 163.531C373.429 163.225 373.491 162.896 373.482 162.564V162.18C373.457 161.716 373.32 161.264 373.084 160.863C372.856 160.473 372.528 160.15 372.134 159.928C371.724 159.69 371.256 159.569 370.782 159.578C370.309 159.575 369.843 159.696 369.431 159.928C369.019 160.149 368.676 160.477 368.437 160.878C368.196 161.324 368.076 161.824 368.087 162.33C368.072 162.833 368.199 163.331 368.455 163.765C368.685 164.155 369.021 164.473 369.423 164.683C369.84 164.904 370.306 165.018 370.778 165.017Z" fill="#232221"/>
<path d="M386.944 166.687C386.255 166.687 385.58 166.497 384.992 166.136C384.387 165.756 383.883 165.235 383.524 164.618C383.146 163.958 382.95 163.209 382.957 162.449C382.939 161.612 383.159 160.788 383.589 160.07C384.02 159.353 384.645 158.772 385.392 158.394C386.099 158.014 386.891 157.819 387.694 157.827C388.538 157.812 389.372 158.018 390.113 158.424C390.801 158.829 391.375 159.403 391.781 160.091C392.212 160.818 392.432 161.65 392.415 162.495C392.431 163.484 392.227 164.464 391.818 165.365C391.424 166.223 390.9 167.016 390.266 167.716C389.611 168.422 388.897 169.069 388.131 169.652C387.364 170.237 386.579 170.787 385.796 171.32L384.494 169.885C385.513 169.366 386.484 168.757 387.396 168.066C388.121 167.513 388.772 166.869 389.332 166.148C389.745 165.629 390.019 165.013 390.127 164.359H390.711C390.364 165.02 389.867 165.591 389.26 166.027C388.576 166.486 387.763 166.714 386.94 166.677L386.944 166.687ZM387.662 165.019C388.376 165.046 389.073 164.802 389.614 164.335C389.859 164.112 390.053 163.838 390.183 163.533C390.313 163.228 390.375 162.898 390.365 162.566V162.183C390.352 161.479 390.059 160.81 389.552 160.322C389.045 159.834 388.365 159.567 387.662 159.581C387.189 159.578 386.723 159.698 386.31 159.93C385.902 160.156 385.56 160.483 385.316 160.881C385.076 161.326 384.956 161.826 384.967 162.332C384.959 162.834 385.086 163.33 385.334 163.767C385.574 164.159 385.918 164.477 386.328 164.685C386.738 164.907 387.198 165.021 387.664 165.019H387.662Z" fill="#232221"/>
<path d="M407.897 157.03L404.343 162.795L403.174 162.244C403.36 162.144 403.562 162.076 403.771 162.045C403.981 162.02 404.194 162.02 404.405 162.045C404.893 162.028 405.381 162.079 405.856 162.196C406.322 162.325 406.754 162.552 407.124 162.864C407.522 163.201 407.831 163.632 408.024 164.117C408.262 164.716 408.375 165.357 408.358 166.001C408.386 166.827 408.181 167.644 407.765 168.358C407.349 169.073 406.739 169.655 406.007 170.038C405.35 170.377 404.626 170.566 403.888 170.592C403.149 170.619 402.414 170.481 401.735 170.189C401.11 169.971 400.541 169.618 400.067 169.155L401.061 167.488C401.352 167.834 401.709 168.118 402.113 168.323C402.544 168.551 403.025 168.671 403.514 168.672C403.99 168.673 404.459 168.558 404.882 168.338C405.295 168.101 405.638 167.758 405.876 167.345C406.133 166.887 406.26 166.368 406.243 165.844C406.261 165.513 406.209 165.181 406.091 164.871C405.974 164.561 405.792 164.279 405.559 164.043C405.054 163.585 404.388 163.344 403.707 163.375C403.385 163.345 403.061 163.345 402.739 163.375C402.488 163.417 402.243 163.484 402.005 163.574H401.922L405.074 158.686L405.671 158.952H400.817V157.03H407.897Z" fill="#232221"/>
<path d="M429.005 166.844C428.994 166.048 429.2 165.264 429.601 164.576C430.002 163.904 430.579 163.354 431.269 162.986C432.013 162.59 432.845 162.389 433.688 162.401C434.52 162.388 435.341 162.59 436.073 162.986C436.767 163.349 437.345 163.9 437.741 164.576C438.124 165.269 438.32 166.051 438.307 166.844C438.322 167.631 438.126 168.409 437.741 169.096C437.353 169.798 436.775 170.376 436.073 170.764C435.334 171.156 434.507 171.357 433.67 171.348C432.836 171.364 432.011 171.175 431.267 170.797C430.578 170.445 430 169.907 429.599 169.245C429.171 168.519 428.964 167.684 429.003 166.842L429.005 166.844ZM430.907 166.844C430.897 167.357 431.024 167.864 431.275 168.313C431.502 168.736 431.835 169.092 432.243 169.346C432.652 169.603 433.127 169.736 433.61 169.73C434.104 169.736 434.59 169.603 435.012 169.346C435.414 169.092 435.742 168.735 435.962 168.313C436.199 167.86 436.319 167.355 436.312 166.844C436.317 166.333 436.197 165.828 435.962 165.375C435.742 164.953 435.414 164.596 435.012 164.341C434.595 164.08 434.112 163.941 433.62 163.941C433.128 163.941 432.646 164.08 432.229 164.341C431.82 164.608 431.487 164.976 431.261 165.409C431.026 165.85 430.905 166.344 430.911 166.844H430.907ZM435.912 158.495L433.36 161.199H432.108L433.775 158.495H435.912Z" fill="#232221"/>
<path d="M447.588 158.994H449.506V162.715H451.792V164.184H449.506V171.024H447.588V164.182H446.087V162.713H447.588V158.994Z" fill="#232221"/>
<path d="M463.571 171.222C462.834 171.233 462.106 171.061 461.452 170.721C460.808 170.386 460.275 169.87 459.918 169.237C459.526 168.504 459.331 167.682 459.351 166.851C459.324 166.006 459.53 165.169 459.948 164.432C460.309 163.77 460.854 163.226 461.516 162.864C462.176 162.509 462.915 162.326 463.665 162.331C464.365 162.31 465.057 162.496 465.652 162.866C466.159 163.177 466.583 163.606 466.887 164.116L466.754 164.432L466.936 162.663H468.604V171.012H466.803V168.843L467.02 169.344C466.914 169.526 466.785 169.695 466.636 169.845C466.424 170.085 466.183 170.298 465.919 170.479C465.607 170.709 465.264 170.894 464.901 171.03C464.471 171.167 464.022 171.232 463.571 171.222ZM464.072 169.67C464.515 169.68 464.954 169.589 465.356 169.404C465.722 169.238 466.042 168.986 466.29 168.67C466.542 168.333 466.718 167.946 466.807 167.535V165.867C466.704 165.475 466.512 165.111 466.246 164.804C465.98 164.498 465.647 164.256 465.273 164.098C464.883 163.929 464.463 163.844 464.038 163.848C463.555 163.845 463.08 163.97 462.661 164.21C462.242 164.45 461.895 164.797 461.653 165.215C461.392 165.678 461.259 166.203 461.27 166.734C461.266 167.249 461.398 167.756 461.653 168.203C461.899 168.639 462.256 169.001 462.687 169.255C463.105 169.516 463.585 169.66 464.078 169.672L464.072 169.67Z" fill="#232221"/>
<path d="M334.506 157.03H184.354V159.018H334.506V157.03Z" fill="#232221"/>
<path d="M638 157.03H487.847V159.018H638V157.03Z" fill="#232221"/>
</svg>
