<svg width="523" height="198" viewBox="0 0 523 198" fill="none" xmlns="http://www.w3.org/2000/svg">
<g style="mix-blend-mode:plus-darker">
<path d="M160.601 114.232V116.906C157.023 116.637 152.24 116.503 146.253 116.503C138.559 116.503 132.84 116.637 129.096 116.906V114.232C131.59 114.202 134.062 113.747 136.403 112.885C137.117 112.597 137.722 112.094 138.136 111.446C138.55 110.798 138.751 110.036 138.711 109.268C138.483 107.061 137.831 104.919 136.788 102.96L129.941 87.6883H97.4553L92.8972 97.7279C91.5874 100.411 90.8166 103.325 90.6285 106.305C90.5795 107.345 90.7791 108.38 91.2108 109.327C91.6424 110.274 92.2936 111.104 93.1104 111.748C95.4973 113.282 98.2559 114.14 101.092 114.23V116.904C98.3986 116.635 94.3341 116.501 88.8984 116.501C85.0022 116.438 81.1053 116.573 77.2227 116.904V114.232C79.6714 113.574 81.8389 112.136 83.3962 110.135C85.3703 107.566 86.994 104.746 88.2247 101.75L117.844 34.7178H119.998L151.368 105.643C153.753 111.193 156.831 114.04 160.601 114.232ZM128.96 84.9957L113.804 50.9516L98.4155 84.9957H128.96Z" fill="black" fill-opacity="0.91"/>
<path d="M202.303 38.0841C199.92 38.12 197.552 38.4761 195.263 39.1429C194.546 39.3976 193.899 39.8176 193.374 40.369C192.849 40.9204 192.462 41.5877 192.243 42.3167C191.594 44.7159 191.321 47.2014 191.434 49.6843V102.765C191.322 105.254 191.594 107.745 192.243 110.151C192.466 110.858 192.858 111.5 193.384 112.022C193.91 112.545 194.555 112.932 195.263 113.15C197.56 113.748 199.932 114.001 202.303 113.9H210.752C213.406 114.057 216.064 113.647 218.547 112.699C221.031 111.751 223.285 110.285 225.16 108.4C228.609 104.745 230.686 98.6674 231.391 90.1655H234.487C234.216 92.9361 234.083 96.6095 234.083 101.165C234.117 106.449 234.432 111.727 235.025 116.977C229.22 116.708 219.429 116.574 205.654 116.574C189.113 116.574 176.597 116.708 168.108 116.977V114.223C170.492 114.177 172.859 113.815 175.148 113.146C175.856 112.903 176.497 112.498 177.022 111.964C177.546 111.43 177.939 110.781 178.168 110.068C178.816 107.662 179.088 105.171 178.975 102.682V49.5995C179.088 47.1166 178.815 44.6312 178.166 42.2319C177.936 41.5173 177.544 40.8656 177.02 40.3284C176.496 39.7911 175.854 39.3829 175.145 39.136C172.858 38.4658 170.489 38.1096 168.106 38.0773V35.3915C171.953 35.6619 177.588 35.7948 185.293 35.7948C192.423 35.7948 198.097 35.6604 202.315 35.3915L202.303 38.0841Z" fill="black" fill-opacity="0.91"/>
<path d="M340.732 39.1429C340.015 39.3976 339.368 39.8176 338.843 40.369C338.318 40.9204 337.931 41.5877 337.712 42.3167C337.063 44.7159 336.79 47.2014 336.903 49.6843V102.765C336.791 105.254 337.064 107.745 337.712 110.151C337.942 110.863 338.334 111.512 338.858 112.047C339.383 112.581 340.024 112.986 340.732 113.228C343.021 113.897 345.388 114.26 347.772 114.305V116.973C343.657 116.704 337.976 116.569 330.732 116.569C323.039 116.569 317.269 116.705 313.575 116.973V114.223C315.959 114.177 318.326 113.815 320.614 113.146C321.323 112.903 321.964 112.498 322.489 111.964C323.013 111.43 323.405 110.781 323.635 110.068C324.283 107.663 324.556 105.171 324.444 102.682V43.8361L292.132 117.58H289.978L258.872 43.969V101.365C258.767 103.959 259.066 106.554 259.756 109.058C260.028 109.88 260.472 110.636 261.059 111.273C261.647 111.91 262.363 112.414 263.162 112.752C265.706 113.659 268.385 114.134 271.086 114.156V116.831C267.855 116.562 263.296 116.427 257.41 116.427C252.037 116.427 247.876 116.562 244.927 116.831V114.223C247.322 114.193 249.69 113.717 251.91 112.818C252.667 112.432 253.332 111.889 253.863 111.226C254.394 110.562 254.777 109.794 254.987 108.97C255.616 106.457 255.889 103.867 255.796 101.278V49.5995C255.909 47.1166 255.636 44.6312 254.987 42.2319C254.758 41.5173 254.366 40.8656 253.842 40.3284C253.318 39.7911 252.676 39.3829 251.967 39.136C249.659 38.46 247.268 38.1038 244.863 38.0773V35.3915C247.825 35.6604 251.986 35.7948 257.345 35.7948C261.623 35.7948 265.419 35.6604 268.732 35.3915L295.661 100.787L324.366 35.8911H330.656C337.915 35.8911 343.595 35.7566 347.697 35.4877V38.1804C345.343 38.1884 343.002 38.5122 340.735 39.1429H340.732Z" fill="black" fill-opacity="0.91"/>
<path d="M438.676 114.232V116.906C435.099 116.636 430.327 116.503 424.328 116.503C416.635 116.503 410.865 116.638 407.171 116.906V114.232C409.666 114.204 412.138 113.748 414.479 112.885C415.197 112.601 415.81 112.1 416.231 111.452C416.651 110.804 416.859 110.04 416.825 109.268C416.595 107.062 415.942 104.92 414.903 102.96L408.074 87.6884H375.533L370.975 97.7279C369.663 100.41 368.892 103.325 368.706 106.305C368.654 107.345 368.852 108.382 369.284 109.329C369.716 110.276 370.369 111.106 371.188 111.748C373.567 113.283 376.321 114.141 379.151 114.23V116.904C376.477 116.634 372.4 116.501 366.958 116.501C363.068 116.438 359.178 116.573 355.302 116.904V114.232C357.748 113.578 359.911 112.139 361.458 110.135C363.432 107.566 365.055 104.746 366.286 101.75L395.919 34.7179H398.055L429.424 105.643C431.81 111.193 434.924 114.04 438.676 114.232ZM407.04 84.9957L391.883 50.9516L376.608 84.9957H407.04ZM414.018 0C414.845 0.000400807 415.659 0.208301 416.385 0.604659C417.11 1.00102 417.725 1.57316 418.173 2.26869C418.677 3.02775 418.949 3.91718 418.956 4.82842C418.867 5.94147 418.486 7.01126 417.851 7.92983C417.216 8.84839 416.35 9.58322 415.34 10.0602C412.264 11.7705 409.044 13.206 405.715 14.35C399.022 17.0297 393.252 19.594 388.405 22.043L387.463 20.3128C391.143 17.543 394.298 14.9787 396.927 12.6199L401.824 8.24979C404.357 5.73844 407.083 3.43052 409.978 1.34747C411.171 0.527058 412.571 0.060003 414.018 0Z" fill="black" fill-opacity="0.91"/>
<path d="M523 111.271C521.495 113.52 519.528 115.421 517.23 116.849C514.835 118.185 512.124 118.85 509.383 118.772C501.882 118.772 497.279 115.374 495.574 108.579L491.449 91.8498C490.167 86.8358 488.314 83.4824 485.89 81.7897C482.583 79.8705 478.78 78.9801 474.965 79.2322H467.273V102.698C467.16 105.187 467.433 107.679 468.081 110.084C468.307 110.795 468.696 111.444 469.217 111.978C469.738 112.513 470.376 112.918 471.081 113.162C473.371 113.827 475.737 114.189 478.121 114.239V116.913C474.03 116.644 468.356 116.51 461.099 116.51C453.405 116.51 447.686 116.644 443.942 116.913V114.223C446.325 114.173 448.692 113.811 450.981 113.146C451.688 112.901 452.329 112.495 452.853 111.961C453.377 111.427 453.77 110.779 454.002 110.068C454.641 107.661 454.907 105.17 454.79 102.682V49.5995C454.908 47.1177 454.642 44.6326 454.002 42.2319C453.778 41.5268 453.397 40.8817 452.887 40.3454C452.377 39.8091 451.752 39.3955 451.059 39.136C448.771 38.4693 446.403 38.1132 444.02 38.0773V35.3915C447.776 35.6604 453.226 35.7948 460.368 35.7948L474.044 35.6596C475.564 35.6596 477.314 35.5244 479.276 35.5244C489.278 35.5244 496.972 37.4028 502.357 41.1595C504.816 42.72 506.837 44.8807 508.23 47.4381C509.623 49.9955 510.343 52.8655 510.32 55.7776C510.276 58.4408 509.702 61.0684 508.632 63.5076C507.563 65.9469 506.018 68.1489 504.089 69.9856C499.936 74.2633 493.12 76.988 483.644 78.1598C485.434 78.3339 486.953 78.5058 488.202 78.6983C492.264 79.1422 496.145 80.6191 499.474 82.9882C502.556 85.6524 504.633 89.2917 505.359 93.3004L508.304 105.515C508.716 107.844 509.509 110.089 510.65 112.16C510.983 112.736 511.459 113.216 512.032 113.553C512.605 113.89 513.256 114.072 513.92 114.083C516.171 114.083 518.614 112.564 521.306 109.525L523 111.271ZM470.394 39.0077C469.77 39.3532 469.227 39.8266 468.799 40.3969C468.371 40.9672 468.069 41.6214 467.912 42.3167C467.377 44.6884 467.15 47.1193 467.238 49.549V76.4754H476.221C484.095 76.4754 489.48 74.8018 492.377 71.4545C495.515 67.3774 497.062 62.2981 496.731 57.1641C496.731 50.9905 495.097 45.9352 491.845 42.7567C488.594 39.5783 483.247 38.0062 475.822 38.0062C473.962 37.924 472.107 38.2657 470.398 39.0054L470.394 39.0077Z" fill="black" fill-opacity="0.91"/>
<path d="M57.7026 162.704H-3.05176e-05V164.996H57.7026V162.704Z" fill="black" fill-opacity="0.91"/>
<path d="M523 162.704H465.297V164.996H523V162.704Z" fill="black" fill-opacity="0.91"/>
<path d="M88.0549 152.378V160.399C88.0012 161.315 88.1385 162.232 88.4582 163.091C88.5773 163.38 88.7647 163.634 89.0042 163.834C89.2438 164.034 89.5283 164.172 89.8332 164.237C90.8683 164.466 91.9263 164.576 92.9864 164.565V165.585C89.1388 165.585 86.3889 165.431 84.5419 165.431H77.3027V164.744C78.0612 164.722 78.8128 164.592 79.5347 164.359C79.7714 164.274 79.9843 164.134 80.155 163.95C80.3258 163.765 80.4495 163.542 80.5155 163.3C80.7202 162.47 80.8043 161.615 80.7653 160.761V137.799C80.8043 136.945 80.7202 136.09 80.5155 135.26C80.444 135.02 80.3184 134.8 80.1483 134.616C79.9783 134.433 79.7683 134.291 79.5347 134.201C78.8136 133.967 78.0609 133.844 77.3027 133.837V132.92C78.8793 133.016 81.1503 133.055 84.3241 133.055H91.5565C94.8697 132.823 98.1709 133.651 100.982 135.42C102.029 136.176 102.876 137.177 103.446 138.335C104.016 139.494 104.293 140.775 104.252 142.066C104.251 143.772 103.807 145.45 102.964 146.933C101.926 148.619 100.411 149.959 98.6101 150.781C96.0528 151.939 93.2589 152.479 90.4542 152.358L88.0549 152.378ZM89.093 134.164C88.8872 134.29 88.7092 134.457 88.5701 134.654C88.431 134.851 88.3336 135.074 88.284 135.31C88.102 136.124 88.025 136.958 88.0549 137.792V151.448H89.9775C90.9847 151.566 92.0048 151.404 92.9261 150.98C93.8473 150.557 94.6341 149.888 95.2001 149.046C96.2407 147.043 96.7318 144.8 96.6232 142.545C96.7724 140.269 96.3212 137.994 95.3147 135.947C94.8362 135.234 94.1754 134.661 93.4009 134.289C92.6264 133.917 91.7664 133.759 90.9102 133.832C90.2813 133.785 89.6505 133.897 89.077 134.16L89.093 134.164Z" fill="black" fill-opacity="0.91"/>
<path d="M150.643 164.588C151.056 164.995 151.589 165.257 152.163 165.337V166.254C150.24 166.254 147.99 166.1 145.162 166.1C142.027 166.1 139.68 166.1 138.14 166.254V165.408C138.992 165.4 139.837 165.251 140.641 164.966C140.874 164.86 141.069 164.686 141.199 164.466C141.33 164.246 141.39 163.991 141.372 163.735C141.325 162.972 141.142 162.223 140.833 161.524L138.062 153.875H128.002L126.811 157.049C126.085 158.673 125.642 160.41 125.502 162.184C125.454 162.635 125.524 163.09 125.706 163.505C125.888 163.92 126.176 164.28 126.54 164.549C127.486 165.057 128.544 165.322 129.618 165.319V166.236C127.521 166.236 125.617 166.082 123.848 166.082C122.679 166.074 121.51 166.125 120.346 166.236V165.408C121.865 165.12 123.174 163.486 124.308 160.562L134.831 133.64H138.024L149.218 162.491C149.532 163.287 150.019 164.003 150.643 164.588ZM137.737 153.047L133.154 140.604L128.364 153.047H137.737Z" fill="black" fill-opacity="0.91"/>
<path d="M202.209 164.221C201.485 165.102 200.571 165.807 199.535 166.284C198.434 166.721 197.256 166.93 196.072 166.9C194.581 166.986 193.103 166.584 191.86 165.754C190.736 164.776 190.045 163.393 189.938 161.907L189.092 157.291C188.857 155.582 188.37 153.916 187.648 152.348C187.383 151.831 186.972 151.404 186.466 151.119C185.96 150.833 185.382 150.703 184.802 150.744H181.77V161.343C181.731 162.197 181.815 163.052 182.02 163.882C182.081 164.121 182.198 164.342 182.362 164.526C182.526 164.711 182.732 164.853 182.962 164.941C183.69 165.176 184.448 165.306 185.212 165.326V166.242C183.558 166.242 181.232 166.089 178.25 166.089C174.962 166.089 172.48 166.089 170.961 166.242V165.397C171.725 165.373 172.482 165.243 173.211 165.012C173.446 164.928 173.657 164.787 173.825 164.603C173.993 164.418 174.113 164.195 174.174 163.953C174.378 163.123 174.462 162.268 174.423 161.414V138.486C174.463 137.632 174.378 136.777 174.174 135.947C174.106 135.708 173.984 135.488 173.817 135.305C173.65 135.121 173.443 134.979 173.211 134.889C172.483 134.656 171.725 134.533 170.961 134.524V133.608C172.537 133.704 174.808 133.743 177.982 133.743H185.208C188.547 133.516 191.883 134.235 194.833 135.819C195.848 136.435 196.68 137.31 197.244 138.355C197.808 139.4 198.083 140.577 198.041 141.763C198.045 142.837 197.834 143.9 197.421 144.891C197.008 145.882 196.402 146.78 195.637 147.534C193.429 149.462 190.624 150.569 187.694 150.669C189.877 150.737 192.006 151.359 193.882 152.477C195.285 153.509 196.23 155.048 196.517 156.767L197.582 161.51C197.702 162.415 197.988 163.289 198.428 164.088C198.57 164.323 198.773 164.515 199.015 164.643C199.257 164.772 199.529 164.833 199.803 164.819C200.134 164.806 200.457 164.713 200.745 164.549C201.085 164.335 201.39 164.069 201.648 163.761L202.209 164.221ZM182.783 134.85C182.575 134.973 182.395 135.138 182.256 135.336C182.117 135.533 182.021 135.758 181.974 135.995C181.798 136.81 181.728 137.644 181.763 138.477V149.825H183.686C184.64 149.951 185.61 149.841 186.512 149.506C187.414 149.171 188.22 148.62 188.861 147.903C189.901 146.207 190.397 144.233 190.284 142.247C190.422 140.232 189.952 138.222 188.936 136.477C188.43 135.808 187.762 135.28 186.994 134.943C186.226 134.607 185.385 134.473 184.55 134.554C183.945 134.499 183.337 134.599 182.781 134.843L182.783 134.85Z" fill="black" fill-opacity="0.91"/>
<path d="M251.238 164.221C251.814 164.695 252.464 165.071 253.161 165.337V166.254C251.007 166.254 248.603 166.1 245.967 166.1C243.928 166.1 241.966 166.1 240.101 166.254V165.408C240.75 165.383 241.395 165.286 242.024 165.119C242.409 165.003 242.601 164.792 242.601 164.485C242.529 164.068 242.357 163.675 242.101 163.339L235.408 152.483C234.984 151.776 234.467 151.13 233.87 150.561C233.376 150.2 232.787 149.993 232.177 149.965V161.506C232.147 162.359 232.231 163.213 232.426 164.045C232.487 164.284 232.604 164.505 232.768 164.689C232.932 164.873 233.138 165.015 233.368 165.103C234.1 165.31 234.858 165.413 235.619 165.41V166.327C233.964 166.327 231.638 166.174 228.657 166.174C225.368 166.174 222.886 166.174 221.367 166.327V165.41C222.126 165.389 222.877 165.259 223.599 165.025C223.836 164.941 224.049 164.801 224.219 164.616C224.39 164.432 224.514 164.209 224.58 163.967C224.775 163.135 224.859 162.281 224.83 161.428V138.486C224.859 137.633 224.775 136.779 224.58 135.947C224.508 135.708 224.382 135.487 224.212 135.304C224.042 135.12 223.833 134.978 223.599 134.889C222.878 134.654 222.125 134.531 221.367 134.524V133.608C222.944 133.704 225.368 133.743 228.657 133.743C231.636 133.743 233.966 133.743 235.619 133.608V134.524C234.848 134.531 234.084 134.654 233.35 134.889C233.123 134.983 232.921 135.127 232.758 135.31C232.595 135.494 232.475 135.711 232.408 135.947C232.212 136.779 232.128 137.633 232.158 138.486V148.872C233.36 148.807 234.522 148.421 235.525 147.756C236.815 146.834 237.979 145.748 238.987 144.525L241.698 141.255C242.89 140.118 243.646 138.6 243.834 136.965C243.841 136.621 243.763 136.28 243.605 135.975C243.447 135.669 243.216 135.407 242.931 135.214C242.178 134.733 241.304 134.473 240.41 134.465V133.601C242.661 133.697 244.929 133.736 247.239 133.736C248.692 133.77 250.145 133.725 251.593 133.601V134.467C248.937 135.179 246.587 136.739 244.899 138.91L239.129 145.785L249.881 162.514C250.262 163.143 250.724 163.719 251.256 164.226L251.238 164.221Z" fill="black" fill-opacity="0.91"/>
<path d="M298.287 166.261C296.19 166.261 292.67 166.107 287.727 166.107C281.034 166.107 276.02 166.158 272.685 166.261V165.415C273.45 165.391 274.207 165.262 274.936 165.03C275.169 164.943 275.378 164.802 275.546 164.618C275.713 164.434 275.834 164.212 275.898 163.971C276.103 163.141 276.187 162.286 276.148 161.432V138.486C276.187 137.632 276.103 136.777 275.898 135.947C275.827 135.71 275.704 135.492 275.537 135.309C275.371 135.125 275.165 134.982 274.936 134.889C274.208 134.656 273.449 134.533 272.685 134.524V133.608C276.007 133.71 281.021 133.755 287.727 133.743C292.247 133.743 295.42 133.743 297.352 133.608C297.141 136.165 297.024 138.436 297.024 140.437C297.012 141.484 297.063 142.531 297.178 143.571H296.101C295.952 141.073 295.091 138.67 293.619 136.646C292.963 135.977 292.169 135.458 291.292 135.126C290.415 134.794 289.476 134.656 288.541 134.724H286.618C285.919 134.69 285.218 134.767 284.542 134.953C284.335 135.025 284.148 135.144 283.994 135.301C283.841 135.457 283.726 135.647 283.658 135.856C283.473 136.552 283.396 137.272 283.428 137.991V149.527H284.909C285.63 149.568 286.351 149.423 287 149.107C287.65 148.79 288.208 148.313 288.621 147.719C289.506 146.429 290.112 144.968 290.399 143.429H291.458C291.362 144.738 291.305 146.179 291.305 147.783V149.846C291.282 152.03 291.378 154.213 291.593 156.386H290.535C289.882 152.328 288.014 150.309 284.9 150.309H283.419V161.849C283.398 162.604 283.496 163.357 283.708 164.081C283.777 164.287 283.893 164.474 284.046 164.628C284.2 164.781 284.387 164.897 284.593 164.966C285.268 165.151 285.969 165.229 286.669 165.195H288.919C289.911 165.236 290.899 165.057 291.813 164.671C292.728 164.285 293.546 163.702 294.208 162.963C295.836 160.748 296.815 158.124 297.036 155.385H298.113C298.017 156.384 297.96 157.692 297.96 159.232C297.939 161.579 298.048 163.926 298.287 166.261Z" fill="black" fill-opacity="0.91"/>
<path d="M348.102 141.429C348.088 142.604 348.133 143.778 348.237 144.949H347.179C346.811 142.088 345.776 139.354 344.158 136.967C343.524 136.204 342.721 135.599 341.814 135.198C340.906 134.798 339.918 134.613 338.927 134.659H337.868V160.99C337.811 161.949 337.942 162.909 338.253 163.818C338.384 164.101 338.575 164.352 338.812 164.554C339.05 164.757 339.328 164.906 339.628 164.991C340.663 165.229 341.722 165.345 342.783 165.337V166.254C338.936 166.254 335.993 166.1 334.032 166.1C332.07 166.1 329.281 166.1 325.587 166.254V165.408C326.648 165.416 327.706 165.3 328.74 165.062C329.04 164.977 329.318 164.828 329.556 164.625C329.793 164.423 329.984 164.172 330.115 163.889C330.426 162.98 330.557 162.02 330.5 161.061V134.641H329.501C328.153 134.589 326.818 134.923 325.654 135.604C324.5 136.419 323.584 137.526 323 138.812C322.107 140.763 321.461 142.817 321.077 144.928H320.232C320.336 143.758 320.381 142.583 320.367 141.408C320.367 139.117 320.252 136.504 320.039 133.58C322.847 133.682 327.598 133.728 334.291 133.715C340.984 133.703 345.72 133.658 348.499 133.58C348.231 136.188 348.099 138.808 348.102 141.429Z" fill="black" fill-opacity="0.91"/>
<path d="M397.36 141.429C397.326 142.604 397.371 143.78 397.495 144.949H396.437C396.046 142.082 394.986 139.347 393.341 136.967C392.706 136.204 391.904 135.599 390.996 135.198C390.088 134.798 389.1 134.613 388.109 134.659H387.05V160.99C386.993 161.949 387.124 162.909 387.435 163.818C387.567 164.101 387.758 164.352 387.995 164.554C388.232 164.757 388.51 164.906 388.81 164.991C389.845 165.229 390.904 165.345 391.966 165.337V166.254C388.118 166.254 385.176 166.1 383.214 166.1C381.252 166.1 378.464 166.1 374.769 166.254V165.408C375.83 165.416 376.889 165.3 377.923 165.062C378.223 164.977 378.501 164.828 378.738 164.625C378.975 164.423 379.166 164.172 379.298 163.889C379.609 162.98 379.739 162.02 379.683 161.061V134.641H378.684C377.336 134.589 376.001 134.923 374.836 135.604C373.683 136.419 372.767 137.526 372.182 138.812C371.289 140.763 370.643 142.817 370.26 144.928H369.201C369.305 143.758 369.35 142.583 369.336 141.408C369.336 139.117 369.222 136.504 369.008 133.58C371.816 133.682 376.567 133.728 383.26 133.715C389.953 133.703 394.689 133.658 397.468 133.58C397.477 136.564 397.36 139.142 397.36 141.429Z" fill="black" fill-opacity="0.91"/>
<path d="M444.217 164.588C444.632 164.991 445.164 165.254 445.736 165.337V166.254C443.903 166.254 441.563 166.1 438.735 166.1C435.6 166.1 433.254 166.1 431.735 166.254V165.408C432.58 165.398 433.419 165.249 434.216 164.966C434.451 164.863 434.648 164.689 434.779 164.468C434.91 164.247 434.969 163.991 434.947 163.735C434.9 162.972 434.718 162.223 434.409 161.524L431.638 153.868H421.578L420.386 157.042C419.661 158.666 419.218 160.403 419.078 162.177C419.03 162.628 419.1 163.083 419.282 163.498C419.464 163.913 419.752 164.273 420.116 164.542C421.063 165.048 422.12 165.313 423.194 165.312V166.229C421.097 166.229 419.193 166.075 417.423 166.075C416.248 166.067 415.073 166.118 413.904 166.229V165.401C415.423 165.113 416.731 163.479 417.884 160.555L428.386 133.64H431.572L442.766 162.491C443.087 163.289 443.583 164.006 444.217 164.588ZM431.311 153.047L426.753 140.604L421.94 153.047H431.311Z" fill="black" fill-opacity="0.91"/>
<path d="M65.1962 112.092C66.9735 113.289 68.9631 114.137 71.0581 114.59V116.904C67.3503 116.67 62.709 116.553 57.1343 116.553C52.9544 116.553 48.9578 116.67 45.1767 116.904V114.59C46.565 114.594 47.9436 114.357 49.2512 113.891C49.6056 113.773 49.9161 113.551 50.1419 113.254C50.3676 112.956 50.4981 112.598 50.5161 112.225C50.4198 111.204 50.0208 110.235 49.3703 109.443L32.4995 83.8293C31.0107 81.289 29.0826 79.0334 26.8049 77.1676C24.8404 75.9967 22.5974 75.3754 20.3105 75.3687V104.598C20.2125 106.753 20.4482 108.911 21.0094 110.994C21.2077 111.611 21.5474 112.173 22.0013 112.636C22.4552 113.099 23.0109 113.449 23.6241 113.659C25.6058 114.239 27.6556 114.552 29.7198 114.592V116.906C26.1556 116.673 21.237 116.556 14.9641 116.556C8.30243 116.556 3.30672 116.673 0.107635 116.906V114.592C2.17157 114.549 4.22094 114.235 6.2033 113.659C6.8165 113.449 7.37219 113.099 7.82613 112.636C8.28007 112.173 8.61973 111.611 8.81804 110.994C9.37918 108.911 9.61494 106.753 9.51698 104.598V47.0238C9.61522 44.8746 9.37944 42.7231 8.81804 40.6462C8.61963 40.0273 8.28016 39.463 7.82641 38.9977C7.37266 38.5324 6.81701 38.1789 6.2033 37.965C4.22166 37.3877 2.17142 37.0794 0.107635 37.0484V34.7178C3.43734 34.947 8.31847 35.0684 14.9641 35.0684C21.1591 35.0684 26.0777 34.9516 29.7198 34.7178V37.0484C27.6558 37.0764 25.6051 37.3847 23.6241 37.965C22.9934 38.1695 22.4201 38.5206 21.9513 38.9894C21.4825 39.4583 21.1314 40.0315 20.9269 40.6623C20.3655 42.7392 20.1297 44.8906 20.228 47.0398V73.022C22.7981 73.034 25.3366 72.4545 27.6469 71.3283C29.9572 70.2022 31.9775 68.5596 33.5514 66.5276L44.668 52.3701C48.6095 47.4966 50.5803 43.7773 50.5803 41.2122C50.5803 38.515 48.181 37.1148 43.3847 37.0484V34.7178C47.8258 34.9516 52.2669 35.0684 56.7081 35.0684C60.9544 35.0684 64.252 34.9516 66.562 34.7178V37.0484C64.0317 37.4279 61.5926 38.2692 59.3663 39.5302C56.8298 41.0772 54.623 43.1088 52.8719 45.509L33.9203 69.7748L60.8009 107.522C61.9784 109.303 63.4683 110.855 65.1985 112.105L65.1962 112.092Z" fill="black" fill-opacity="0.91"/>
<path d="M195.229 181.86H199.23V197.248H196.961V184.053H195.229V181.86Z" fill="black" fill-opacity="0.91"/>
<path d="M214.08 192.167C213.291 192.169 212.517 191.949 211.848 191.533C211.145 191.1 210.563 190.498 210.154 189.782C209.709 189.025 209.483 188.159 209.501 187.282C209.479 186.287 209.739 185.307 210.25 184.454C210.708 183.653 211.372 182.989 212.173 182.531C212.982 182.093 213.889 181.868 214.808 181.878C215.782 181.859 216.744 182.096 217.597 182.565C218.394 183.029 219.056 183.692 219.52 184.488C220.017 185.325 220.271 186.285 220.251 187.259C220.27 188.399 220.035 189.529 219.563 190.568C219.109 191.562 218.498 192.477 217.755 193.279C217.011 194.096 216.194 194.843 215.312 195.511C214.407 196.185 213.523 196.819 212.62 197.433L211.1 195.779C212.275 195.18 213.395 194.478 214.446 193.682C215.288 193.045 216.044 192.301 216.697 191.471C217.173 190.873 217.489 190.163 217.613 189.408H218.301C217.9 190.17 217.327 190.829 216.628 191.331C215.884 191.864 214.995 192.156 214.08 192.167ZM214.925 190.245C215.747 190.271 216.549 189.99 217.175 189.456C217.458 189.199 217.682 188.883 217.832 188.531C217.981 188.179 218.053 187.799 218.042 187.417V186.975C218.013 186.439 217.856 185.918 217.583 185.455C217.32 185.006 216.942 184.634 216.488 184.378C216.015 184.103 215.476 183.964 214.93 183.975C214.384 183.971 213.847 184.11 213.371 184.378C212.897 184.632 212.501 185.011 212.226 185.474C211.949 185.987 211.81 186.563 211.822 187.146C211.805 187.727 211.952 188.3 212.246 188.801C212.512 189.251 212.899 189.618 213.362 189.86C213.844 190.114 214.381 190.246 214.925 190.245Z" fill="black" fill-opacity="0.91"/>
<path d="M233.563 192.17C232.769 192.17 231.99 191.951 231.313 191.535C230.615 191.097 230.034 190.496 229.619 189.784C229.184 189.023 228.958 188.16 228.966 187.284C228.946 186.319 229.199 185.368 229.695 184.541C230.192 183.714 230.912 183.044 231.773 182.609C232.589 182.171 233.502 181.946 234.427 181.956C235.401 181.938 236.362 182.175 237.216 182.643C238.01 183.111 238.671 183.772 239.139 184.566C239.636 185.403 239.89 186.363 239.87 187.337C239.889 188.477 239.654 189.607 239.182 190.646C238.727 191.635 238.124 192.549 237.392 193.357C236.637 194.17 235.814 194.916 234.931 195.589C234.047 196.262 233.142 196.897 232.239 197.511L230.738 195.857C231.913 195.258 233.032 194.556 234.083 193.76C234.92 193.123 235.67 192.379 236.315 191.549C236.792 190.95 237.107 190.241 237.232 189.486H237.906C237.505 190.248 236.932 190.907 236.233 191.409C235.444 191.938 234.507 192.2 233.559 192.158L233.563 192.17ZM234.39 190.247C235.213 190.279 236.018 189.997 236.641 189.459C236.924 189.201 237.148 188.886 237.297 188.534C237.447 188.182 237.518 187.801 237.507 187.419V186.977C237.491 186.166 237.154 185.394 236.57 184.832C235.985 184.269 235.202 183.962 234.39 183.977C233.845 183.974 233.308 184.113 232.832 184.38C232.362 184.64 231.967 185.017 231.686 185.476C231.409 185.989 231.27 186.565 231.283 187.149C231.274 187.728 231.421 188.299 231.707 188.803C231.984 189.255 232.38 189.622 232.853 189.862C233.326 190.117 233.855 190.25 234.393 190.247H234.39Z" fill="black" fill-opacity="0.91"/>
<path d="M257.719 181.037L253.622 187.683L252.274 187.048C252.488 186.932 252.721 186.855 252.962 186.819C253.204 186.789 253.45 186.789 253.693 186.819C254.256 186.799 254.819 186.857 255.365 186.993C255.903 187.141 256.402 187.403 256.828 187.763C257.287 188.152 257.643 188.648 257.866 189.207C258.139 189.897 258.27 190.636 258.251 191.379C258.283 192.331 258.046 193.274 257.566 194.097C257.087 194.921 256.384 195.592 255.54 196.033C254.783 196.424 253.948 196.642 253.097 196.673C252.245 196.703 251.398 196.544 250.615 196.207C249.894 195.956 249.238 195.55 248.692 195.016L249.838 193.093C250.173 193.493 250.585 193.82 251.05 194.056C251.548 194.32 252.103 194.458 252.666 194.459C253.215 194.46 253.756 194.328 254.243 194.074C254.719 193.8 255.114 193.404 255.388 192.928C255.685 192.401 255.832 191.803 255.812 191.198C255.833 190.816 255.773 190.434 255.637 190.077C255.501 189.719 255.293 189.394 255.024 189.122C254.442 188.593 253.674 188.317 252.888 188.352C252.517 188.317 252.143 188.317 251.772 188.352C251.484 188.4 251.2 188.477 250.927 188.581H250.83L254.465 182.946L255.152 183.253H249.556V181.037H257.719Z" fill="black" fill-opacity="0.91"/>
<path d="M282.054 192.351C282.041 191.433 282.279 190.529 282.741 189.736C283.203 188.961 283.868 188.328 284.664 187.903C285.522 187.447 286.481 187.215 287.453 187.229C288.412 187.214 289.359 187.446 290.203 187.903C291.003 188.321 291.669 188.957 292.125 189.736C292.568 190.535 292.793 191.437 292.778 192.351C292.795 193.259 292.57 194.155 292.125 194.947C291.678 195.756 291.012 196.423 290.203 196.87C289.35 197.322 288.397 197.554 287.432 197.543C286.471 197.561 285.519 197.343 284.662 196.909C283.867 196.502 283.201 195.882 282.739 195.119C282.245 194.282 282.006 193.319 282.051 192.348L282.054 192.351ZM284.247 192.351C284.236 192.943 284.382 193.527 284.671 194.044C284.932 194.532 285.317 194.943 285.787 195.236C286.259 195.531 286.806 195.685 287.363 195.678C287.933 195.685 288.492 195.532 288.979 195.236C289.443 194.942 289.82 194.531 290.074 194.044C290.348 193.522 290.486 192.94 290.478 192.351C290.484 191.762 290.345 191.18 290.074 190.657C289.82 190.17 289.443 189.759 288.979 189.466C288.498 189.164 287.942 189.004 287.375 189.004C286.807 189.004 286.251 189.164 285.771 189.466C285.299 189.773 284.915 190.197 284.655 190.696C284.384 191.205 284.245 191.774 284.251 192.351H284.247ZM290.017 182.726L287.075 185.842H285.631L287.554 182.726H290.017Z" fill="black" fill-opacity="0.91"/>
<path d="M303.478 183.301H305.689V187.591H308.324V189.285H305.689V197.17H303.478V189.282H301.748V187.589H303.478V183.301Z" fill="black" fill-opacity="0.91"/>
<path d="M321.904 197.399C321.055 197.412 320.215 197.213 319.461 196.822C318.718 196.434 318.104 195.84 317.692 195.11C317.241 194.265 317.015 193.318 317.039 192.36C317.008 191.385 317.246 190.42 317.727 189.571C318.144 188.807 318.771 188.18 319.535 187.763C320.296 187.354 321.148 187.143 322.012 187.149C322.82 187.124 323.617 187.338 324.304 187.765C324.888 188.123 325.376 188.618 325.727 189.207L325.573 189.571L325.784 187.531H327.707V197.156H325.631V194.656L325.88 195.234C325.758 195.444 325.609 195.638 325.438 195.811C325.193 196.088 324.916 196.333 324.611 196.542C324.251 196.807 323.856 197.02 323.437 197.177C322.942 197.335 322.424 197.41 321.904 197.399ZM322.482 195.609C322.992 195.621 323.499 195.516 323.962 195.302C324.384 195.111 324.753 194.821 325.039 194.457C325.329 194.068 325.532 193.622 325.635 193.148V191.226C325.516 190.773 325.294 190.354 324.988 190C324.681 189.646 324.297 189.368 323.866 189.186C323.417 188.991 322.932 188.892 322.443 188.897C321.886 188.894 321.338 189.038 320.855 189.315C320.372 189.592 319.971 189.992 319.693 190.474C319.392 191.007 319.239 191.612 319.251 192.225C319.246 192.818 319.399 193.403 319.693 193.918C319.976 194.42 320.387 194.838 320.885 195.13C321.367 195.432 321.921 195.598 322.489 195.612L322.482 195.609Z" fill="black" fill-opacity="0.91"/>
<path d="M173.108 181.037H-3.05176e-05V183.329H173.108V181.037Z" fill="black" fill-opacity="0.91"/>
<path d="M523 181.037H349.892V183.329H523V181.037Z" fill="black" fill-opacity="0.91"/>
</g>
</svg>
