<svg id="Layer_2" data-name="Layer 2" xmlns="http://www.w3.org/2000/svg" width="320.97" height="86.2" viewBox="0 0 320.97 86.2">
  <g id="Layer_1" data-name="Layer 1">
    <path id="Path_66" data-name="Path 66" d="M30.147,11.43H21.6V29.614l8.547-8.532Z" transform="translate(-4.786 3.72)" fill="#bf7e59"/>
    <path id="Path_67" data-name="Path 67" d="M20.8,45h2.328l3.4-3.394.016.016,6.041-6.056-.008-.008.327-.327.381-.374,3.425-3.417L39.9,28.229l.023-.016h.008L56.67,11.477l.047-.047H44.6l-.07.07L19.57,36.449H8.547V11.43H0V82.454H8.547V45Z" transform="translate(0 3.72)" fill="#bf7e59"/>
    <path id="Path_68" data-name="Path 68" d="M21.6,79.68v17.9h8.547V88.017Z" transform="translate(-4.786 -11.402)" fill="#bf7e59"/>
    <path id="Path_69" data-name="Path 69" d="M17.34,51.916h13.4l4.974-4.974,6.064-6.056h0L57.056,25.613l.171-.171L71.239,11.43H83.351L47.831,46.942l35.52,35.512H71.239L41.775,53,37.136,57.63l-.724.708.716.693L60.559,82.454H48.446Z" transform="translate(-3.842 3.72)" fill="#bf7e59"/>
    <path id="Path_70" data-name="Path 70" d="M189.415,52.748v1.167q-2.342-.176-6.261-.176-5.036,0-7.487.176V52.748a9.56,9.56,0,0,0,3.189-.588,1.612,1.612,0,0,0,1.007-1.578,7.5,7.5,0,0,0-.839-2.753l-2.988-6.664H161.86l-1.989,4.381a9.963,9.963,0,0,0-.99,3.743,2.854,2.854,0,0,0,1.083,2.375,6.841,6.841,0,0,0,3.483,1.083v1.167q-1.763-.176-5.321-.176a50.5,50.5,0,0,0-5.095.176V52.748a5.086,5.086,0,0,0,2.694-1.788,15.946,15.946,0,0,0,2.107-3.659L170.757,18.05h.94L185.386,49C186.427,51.422,187.77,52.664,189.415,52.748ZM175.608,39.99l-6.614-14.856L162.279,39.99Z" transform="translate(-26.587 -2.9)" fill="#232221"/>
    <path id="Path_71" data-name="Path 71" d="M214.013,19.575a11.608,11.608,0,0,0-3.072.462,2.115,2.115,0,0,0-1.318,1.385,10.484,10.484,0,0,0-.353,3.215V47.8a10.55,10.55,0,0,0,.353,3.223,2,2,0,0,0,1.318,1.309,10.433,10.433,0,0,0,3.072.327H217.7a8.184,8.184,0,0,0,6.287-2.4q2.258-2.392,2.719-7.957h1.351c-.118,1.209-.176,2.812-.176,4.8a65.185,65.185,0,0,0,.411,6.9q-3.8-.176-12.817-.176-10.827,0-16.384.176V52.8a11.751,11.751,0,0,0,3.072-.47,2.1,2.1,0,0,0,1.318-1.343,10.551,10.551,0,0,0,.352-3.223V24.6a10.484,10.484,0,0,0-.353-3.215,2.115,2.115,0,0,0-1.318-1.351,11.482,11.482,0,0,0-3.072-.462V18.4c1.679.118,4.138.176,7.5.176q4.667,0,7.428-.176Z" transform="translate(-32.987 -2.956)" fill="#232221"/>
    <path id="Path_72" data-name="Path 72" d="M280.832,20.037a2.115,2.115,0,0,0-1.318,1.385,10.483,10.483,0,0,0-.353,3.215V47.8a10.55,10.55,0,0,0,.353,3.223,2.1,2.1,0,0,0,1.318,1.343,11.751,11.751,0,0,0,3.072.47V54q-2.694-.176-7.436-.176c-3.357,0-5.875.059-7.487.176V52.8a11.75,11.75,0,0,0,3.072-.47,2.1,2.1,0,0,0,1.318-1.343,10.55,10.55,0,0,0,.353-3.223V22.085l-14.1,32.18h-.94L245.11,22.143V47.189a10.962,10.962,0,0,0,.386,3.357,2.652,2.652,0,0,0,1.486,1.612,10.559,10.559,0,0,0,3.458.613v1.167q-2.115-.176-5.968-.176-3.517,0-5.447.176V52.8a8.393,8.393,0,0,0,3.047-.613,2.61,2.61,0,0,0,1.343-1.679,12.062,12.062,0,0,0,.353-3.357V24.6a10.484,10.484,0,0,0-.353-3.215,2.115,2.115,0,0,0-1.318-1.351,11.482,11.482,0,0,0-3.1-.462V18.4q1.939.176,5.447.176,2.8,0,4.969-.176l11.751,28.537L273.69,18.618h2.745q4.751,0,7.436-.176v1.175a11.482,11.482,0,0,0-3.038.42Z" transform="translate(-39.399 -2.956)" fill="#232221"/>
    <path id="Path_73" data-name="Path 73" d="M331.605,49.848v1.167c-1.561-.118-3.643-.176-6.261-.176-3.357,0-5.875.059-7.487.176V49.848a9.518,9.518,0,0,0,3.189-.588,1.62,1.62,0,0,0,1.024-1.578,7.554,7.554,0,0,0-.839-2.753l-2.98-6.664h-14.2l-1.989,4.381a9.921,9.921,0,0,0-.99,3.743,2.837,2.837,0,0,0,1.083,2.375,6.8,6.8,0,0,0,3.475,1.083v1.167c-1.167-.118-2.946-.176-5.321-.176a50.192,50.192,0,0,0-5.086.176V49.848a5.036,5.036,0,0,0,2.686-1.788,15.947,15.947,0,0,0,2.107-3.659L312.947,15.15h.932L327.568,46.1C328.609,48.522,329.968,49.764,331.605,49.848ZM317.8,37.09l-6.614-14.856L304.52,37.09ZM320.845,0a2.157,2.157,0,0,1,1.813.99A2.048,2.048,0,0,1,323,2.107a2.77,2.77,0,0,1-1.578,2.283,26.1,26.1,0,0,1-4.2,1.872q-4.381,1.754-7.554,3.357l-.411-.755q2.409-1.813,4.13-3.357L315.524,3.6A29.628,29.628,0,0,1,319.082.588,3.357,3.357,0,0,1,320.845,0Z" transform="translate(-47.432)" fill="#232221"/>
    <path id="Path_74" data-name="Path 74" d="M375.805,51.512a8.3,8.3,0,0,1-2.518,2.434,6.639,6.639,0,0,1-3.424.839q-4.91,0-6.026-4.448l-1.8-7.3q-.839-3.282-2.426-4.39a8.393,8.393,0,0,0-4.767-1.116h-3.357v10.24a10.549,10.549,0,0,0,.353,3.223,2.09,2.09,0,0,0,1.309,1.343,11.894,11.894,0,0,0,3.072.47v1.167q-2.678-.176-7.428-.176-5.036,0-7.487.176V52.8a11.893,11.893,0,0,0,3.072-.47,2.115,2.115,0,0,0,1.318-1.343,10.608,10.608,0,0,0,.344-3.223V24.6a10.541,10.541,0,0,0-.344-3.215,2.132,2.132,0,0,0-1.284-1.351,11.608,11.608,0,0,0-3.072-.462V18.4q2.459.176,7.134.176l5.968-.059c.663,0,1.427-.059,2.283-.059q6.547,0,10.072,2.459a7.487,7.487,0,0,1,3.475,6.379,8.763,8.763,0,0,1-2.719,6.2q-2.719,2.8-8.922,3.567c.781.076,1.444.151,1.989.235a10.441,10.441,0,0,1,4.919,1.872,7.781,7.781,0,0,1,2.568,4.5L369.392,49a9.4,9.4,0,0,0,1.024,2.9,1.679,1.679,0,0,0,1.427.839c.982,0,2.048-.663,3.223-1.989ZM352.849,19.978a2.207,2.207,0,0,0-1.083,1.444,12.313,12.313,0,0,0-.294,3.156V36.328h3.92q5.154,0,7.05-2.191a9.248,9.248,0,0,0,1.9-6.236c0-2.694-.713-4.9-2.132-6.287s-3.752-2.073-6.992-2.073a5.363,5.363,0,0,0-2.367.436Z" transform="translate(-54.835 -2.956)" fill="#232221"/>
    <rect id="Rectangle_64" data-name="Rectangle 64" width="25.18" height="1" transform="translate(92.746 71)" fill="#232221"/>
    <rect id="Rectangle_65" data-name="Rectangle 65" width="25.18" height="1" transform="translate(295.79 71)" fill="#232221"/>
    <path id="Path_75" data-name="Path 75" d="M155.382,77.954v3.5a2.887,2.887,0,0,0,.176,1.175.839.839,0,0,0,.6.5,6.06,6.06,0,0,0,1.376.143v.445c-1.679,0-2.879-.067-3.685-.067H150.69v-.3a3.483,3.483,0,0,0,.974-.168.68.68,0,0,0,.428-.462,3.887,3.887,0,0,0,.109-1.108V71.592a3.886,3.886,0,0,0-.109-1.108.713.713,0,0,0-.428-.462,3.248,3.248,0,0,0-.974-.159v-.4c.688.042,1.679.059,3.064.059h3.156a6.824,6.824,0,0,1,4.113,1.032,3.441,3.441,0,0,1,1.427,2.9,4.306,4.306,0,0,1-.562,2.124,4.356,4.356,0,0,1-1.9,1.679,7.806,7.806,0,0,1-3.559.688Zm.453-7.948a.772.772,0,0,0-.353.5,4.263,4.263,0,0,0-.1,1.083v5.959h.839A2.409,2.409,0,0,0,158.5,76.5a5.573,5.573,0,0,0,.621-2.837,5.682,5.682,0,0,0-.571-2.879,2.1,2.1,0,0,0-1.922-.923,1.628,1.628,0,0,0-.8.143Z" transform="translate(-24.211 -11.46)" fill="#232221"/>
    <path id="Path_76" data-name="Path 76" d="M186.29,82.985a1.175,1.175,0,0,0,.663.327v.4c-.839,0-1.821-.067-3.055-.067-1.368,0-2.392,0-3.064.067v-.369a3.357,3.357,0,0,0,1.091-.193.546.546,0,0,0,.319-.537,2.812,2.812,0,0,0-.235-.965L180.8,78.31h-4.39l-.52,1.385a6.807,6.807,0,0,0-.571,2.241,1.133,1.133,0,0,0,.453,1.032,2.82,2.82,0,0,0,1.343.336v.4c-.915,0-1.746-.067-2.518-.067a15.1,15.1,0,0,0-1.528.067v-.361c.663-.126,1.234-.839,1.729-2.115L179.39,69.48h1.393l4.885,12.59A2.518,2.518,0,0,0,186.29,82.985Zm-5.632-5.036-2-5.43-2.09,5.43Z" transform="translate(-27.807 -11.163)" fill="#232221"/>
    <path id="Path_77" data-name="Path 77" d="M213.019,82.822a3.29,3.29,0,0,1-1.167.9,3.827,3.827,0,0,1-1.511.269,3,3,0,0,1-1.838-.5,2.459,2.459,0,0,1-.839-1.679l-.369-2.014a7.647,7.647,0,0,0-.63-2.157,1.293,1.293,0,0,0-1.242-.7H204.1v4.625a3.886,3.886,0,0,0,.109,1.108.671.671,0,0,0,.411.462,3.491,3.491,0,0,0,.982.168v.4c-.722,0-1.737-.067-3.038-.067-1.435,0-2.518,0-3.181.067v-.369a3.617,3.617,0,0,0,.982-.168.663.663,0,0,0,.42-.462,3.887,3.887,0,0,0,.109-1.108V71.592a3.886,3.886,0,0,0-.109-1.108.7.7,0,0,0-.42-.462,3.358,3.358,0,0,0-.982-.159v-.4c.688.042,1.679.059,3.064.059H205.6a7.764,7.764,0,0,1,4.2.906,2.912,2.912,0,0,1,1.4,2.594,3.517,3.517,0,0,1-1.049,2.518,5.556,5.556,0,0,1-3.466,1.368,5.615,5.615,0,0,1,2.7.789,2.921,2.921,0,0,1,1.15,1.872L211,81.639a3.2,3.2,0,0,0,.369,1.125.663.663,0,0,0,.6.319.906.906,0,0,0,.411-.118,1.679,1.679,0,0,0,.394-.344Zm-8.477-12.817a.747.747,0,0,0-.353.5,4.264,4.264,0,0,0-.092,1.083v4.952h.839a2.577,2.577,0,0,0,2.258-.839,4.255,4.255,0,0,0,.621-2.468,4.406,4.406,0,0,0-.588-2.518,2.14,2.14,0,0,0-1.914-.839,1.57,1.57,0,0,0-.772.126Z" transform="translate(-32.034 -11.16)" fill="#232221"/>
    <path id="Path_78" data-name="Path 78" d="M238.625,82.822a3.013,3.013,0,0,0,.839.487v.4c-.94,0-1.989-.067-3.139-.067-.89,0-1.746,0-2.56.067v-.369a3.843,3.843,0,0,0,.839-.126q.252-.076.252-.277a1.15,1.15,0,0,0-.218-.5L231.717,77.7a4,4,0,0,0-.671-.839,1.36,1.36,0,0,0-.739-.26v5.036a4.2,4.2,0,0,0,.109,1.108.671.671,0,0,0,.411.462,3.567,3.567,0,0,0,.982.134v.4c-.722,0-1.737-.067-3.038-.067-1.435,0-2.518,0-3.181.067v-.4a3.483,3.483,0,0,0,.974-.168.68.68,0,0,0,.428-.462,4.2,4.2,0,0,0,.109-1.108V71.592a4.2,4.2,0,0,0-.109-1.108.714.714,0,0,0-.428-.462,3.248,3.248,0,0,0-.974-.159v-.4c.688.042,1.746.059,3.181.059,1.3,0,2.317,0,3.038-.059v.4a3.357,3.357,0,0,0-.99.159.713.713,0,0,0-.411.462,4.2,4.2,0,0,0-.109,1.108v4.532a2.946,2.946,0,0,0,1.469-.487,7.94,7.94,0,0,0,1.511-1.41l1.183-1.427a3.072,3.072,0,0,0,.932-1.872.9.9,0,0,0-.394-.764,2.082,2.082,0,0,0-1.1-.327V69.46c.982.042,1.972.059,2.98.059a17.48,17.48,0,0,0,1.9-.059v.378a5.506,5.506,0,0,0-2.921,1.939l-2.518,3,4.692,7.3a3.617,3.617,0,0,0,.6.747Z" transform="translate(-36.245 -11.16)" fill="#232221"/>
    <path id="Path_79" data-name="Path 79" d="M263.442,83.712c-.915,0-2.451-.067-4.608-.067q-4.381,0-6.564.067v-.369a3.618,3.618,0,0,0,.982-.168.68.68,0,0,0,.42-.462,3.886,3.886,0,0,0,.109-1.108V71.592a3.886,3.886,0,0,0-.109-1.108.722.722,0,0,0-.42-.462,3.357,3.357,0,0,0-.982-.159v-.4q2.174.067,6.564.059c1.972,0,3.357,0,4.2-.059-.092,1.116-.143,2.107-.143,2.98a11.22,11.22,0,0,0,.067,1.368h-.47a5.716,5.716,0,0,0-1.083-3.022,2.82,2.82,0,0,0-2.216-.839h-.839a2.9,2.9,0,0,0-.906.1.621.621,0,0,0-.386.394,3.1,3.1,0,0,0-.1.932V76.41h.646a1.847,1.847,0,0,0,1.62-.789A4.9,4.9,0,0,0,260,73.749h.462c-.042.571-.067,1.2-.067,1.9v.9a26.122,26.122,0,0,0,.126,2.854h-.462c-.285-1.771-1.1-2.652-2.459-2.652h-.646v5.036a3.156,3.156,0,0,0,.126.974.613.613,0,0,0,.386.386,2.9,2.9,0,0,0,.906.1h.982a2.938,2.938,0,0,0,2.308-.974,6.462,6.462,0,0,0,1.234-3.307h.47c-.042.436-.067,1.007-.067,1.679A27.715,27.715,0,0,0,263.442,83.712Z" transform="translate(-40.531 -11.16)" fill="#232221"/>
    <path id="Path_80" data-name="Path 80" d="M289.138,72.874a15.161,15.161,0,0,0,.059,1.536h-.462a8.032,8.032,0,0,0-1.318-3.483,2.8,2.8,0,0,0-2.283-1.007h-.462V81.41a3.223,3.223,0,0,0,.168,1.234.948.948,0,0,0,.6.512,5.951,5.951,0,0,0,1.377.151v.4c-1.679,0-2.963-.067-3.819-.067s-2.073,0-3.685.067v-.369a5.951,5.951,0,0,0,1.376-.151.948.948,0,0,0,.6-.512,3.223,3.223,0,0,0,.168-1.234V69.912h-.436a3.089,3.089,0,0,0-1.679.42,3.475,3.475,0,0,0-1.158,1.4,11.24,11.24,0,0,0-.839,2.669h-.369a15.17,15.17,0,0,0,.059-1.536c0-1-.05-2.14-.143-3.416q1.838.067,6.219.059t6.2-.059A33.146,33.146,0,0,0,289.138,72.874Z" transform="translate(-44.489 -11.158)" fill="#232221"/>
    <path id="Path_81" data-name="Path 81" d="M314.723,72.874a11.434,11.434,0,0,0,.059,1.536h-.462a8.032,8.032,0,0,0-1.351-3.483,2.8,2.8,0,0,0-2.283-1.007h-.462V81.41a3.223,3.223,0,0,0,.168,1.234.948.948,0,0,0,.6.512,5.952,5.952,0,0,0,1.377.151v.4c-1.679,0-2.963-.067-3.819-.067s-2.073,0-3.685.067v-.369a5.95,5.95,0,0,0,1.376-.151.949.949,0,0,0,.6-.512,3.223,3.223,0,0,0,.168-1.234V69.912h-.436a3.089,3.089,0,0,0-1.679.42,3.475,3.475,0,0,0-1.158,1.4,11.239,11.239,0,0,0-.839,2.669h-.462a15.179,15.179,0,0,0,.059-1.536c0-1-.05-2.14-.143-3.416q1.838.067,6.219.059t6.2-.059C314.774,70.751,314.723,71.876,314.723,72.874Z" transform="translate(-48.579 -11.158)" fill="#232221"/>
    <path id="Path_82" data-name="Path 82" d="M338.918,82.985a1.2,1.2,0,0,0,.663.327v.4c-.8,0-1.821-.067-3.055-.067-1.368,0-2.392,0-3.055.067v-.369a3.357,3.357,0,0,0,1.083-.193.537.537,0,0,0,.319-.537,2.811,2.811,0,0,0-.235-.965l-1.209-3.341h-4.39l-.52,1.385a6.808,6.808,0,0,0-.571,2.241,1.133,1.133,0,0,0,.453,1.032,2.846,2.846,0,0,0,1.343.336v.4c-.915,0-1.746-.067-2.518-.067a15.149,15.149,0,0,0-1.536.067v-.361c.663-.126,1.234-.839,1.737-2.115L332.01,69.48H333.4l4.885,12.59A2.518,2.518,0,0,0,338.918,82.985Zm-5.632-5.036-1.989-5.43-2.1,5.43Z" transform="translate(-52.327 -11.163)" fill="#232221"/>
    <path id="Path_83" data-name="Path 83" d="M138.958,45.194a7.355,7.355,0,0,0,2.558,1.09v1.01q-2.427-.153-6.076-.153c-1.824,0-3.568.051-5.218.153v-1.01A5.24,5.24,0,0,0,132,45.979a.807.807,0,0,0,.552-.727,2.246,2.246,0,0,0-.5-1.214l-7.362-11.177a10.85,10.85,0,0,0-2.485-2.907,5.567,5.567,0,0,0-2.834-.785V41.924a9.135,9.135,0,0,0,.305,2.791,1.817,1.817,0,0,0,1.141,1.163,10.175,10.175,0,0,0,2.66.407v1.01q-2.333-.153-6.439-.153c-2.907,0-5.087.051-6.483.153v-1.01a10.3,10.3,0,0,0,2.66-.407,1.817,1.817,0,0,0,1.141-1.163,9.136,9.136,0,0,0,.305-2.791V16.8a9.077,9.077,0,0,0-.305-2.783,1.831,1.831,0,0,0-1.141-1.17,10.051,10.051,0,0,0-2.66-.4V11.43c1.453.1,3.583.153,6.483.153q4.055,0,6.439-.153v1.017a9.942,9.942,0,0,0-2.66.4,1.831,1.831,0,0,0-1.177,1.177,9.077,9.077,0,0,0-.305,2.783V28.145a7.311,7.311,0,0,0,5.814-2.834L130,19.133q2.58-3.19,2.58-4.869c0-1.177-1.047-1.788-3.14-1.817V11.43q2.907.153,5.814.153c1.853,0,3.292-.051,4.3-.153v1.017a9.114,9.114,0,0,0-3.14,1.083,9.869,9.869,0,0,0-2.834,2.609L125.31,26.728,137.04,43.2a7.725,7.725,0,0,0,1.919,2Z" transform="translate(-17.762 3.72)" fill="#232221"/>
    <path id="Path_84" data-name="Path 84" d="M212,94.55h1.746v6.715h-.99V95.507H212Z" transform="translate(-34.061 -15.191)" fill="#232221"/>
    <path id="Path_85" data-name="Path 85" d="M221.418,99.05a1.838,1.838,0,0,1-.974-.277,2.149,2.149,0,0,1-.739-.764,2.073,2.073,0,0,1-.285-1.091,2.3,2.3,0,0,1,.327-1.234,2.258,2.258,0,0,1,.839-.839,2.359,2.359,0,0,1,1.15-.285,2.426,2.426,0,0,1,1.217.3,2.325,2.325,0,0,1,.839.839,2.275,2.275,0,0,1,.319,1.209,3.357,3.357,0,0,1-.3,1.444,4.482,4.482,0,0,1-.789,1.183,7.847,7.847,0,0,1-1.066.974c-.395.294-.781.571-1.175.839l-.663-.722a9.746,9.746,0,0,0,1.46-.915,5.372,5.372,0,0,0,.982-.965,1.956,1.956,0,0,0,.4-.9h.3a2.417,2.417,0,0,1-.73.839A1.947,1.947,0,0,1,221.418,99.05Zm.369-.839a1.444,1.444,0,0,0,.982-.344,1.158,1.158,0,0,0,.378-.89v-.193a1.46,1.46,0,0,0-.2-.663,1.284,1.284,0,0,0-.478-.47,1.3,1.3,0,0,0-.68-.176,1.368,1.368,0,0,0-.68.176,1.293,1.293,0,0,0-.5.478,1.469,1.469,0,0,0-.176.73,1.343,1.343,0,0,0,.185.722,1.225,1.225,0,0,0,.487.462A1.452,1.452,0,0,0,221.787,98.211Z" transform="translate(-35.253 -15.193)" fill="#232221"/>
    <path id="Path_86" data-name="Path 86" d="M231.546,99.057a1.872,1.872,0,0,1-.982-.277,2.224,2.224,0,0,1-.739-.764,2.157,2.157,0,0,1-.285-1.091,2.233,2.233,0,0,1,1.225-2.04,2.392,2.392,0,0,1,1.158-.285,2.442,2.442,0,0,1,1.217.3,2.367,2.367,0,0,1,.839.839,2.275,2.275,0,0,1,.319,1.209,3.357,3.357,0,0,1-.3,1.444,4.666,4.666,0,0,1-.781,1.183,8.459,8.459,0,0,1-1.074.974c-.386.294-.781.571-1.175.839l-.655-.722a9.745,9.745,0,0,0,1.46-.915,5.3,5.3,0,0,0,.974-.965,1.956,1.956,0,0,0,.4-.9h.294a2.417,2.417,0,0,1-.73.839,1.939,1.939,0,0,1-1.167.327Zm.361-.839a1.419,1.419,0,0,0,.982-.344,1.158,1.158,0,0,0,.378-.89v-.193a1.335,1.335,0,0,0-1.36-1.309,1.368,1.368,0,0,0-.68.176,1.351,1.351,0,0,0-.5.478,1.469,1.469,0,0,0-.176.73,1.418,1.418,0,0,0,.185.722,1.251,1.251,0,0,0,.5.462,1.4,1.4,0,0,0,.672.168Z" transform="translate(-36.879 -15.199)" fill="#232221"/>
    <path id="Path_87" data-name="Path 87" d="M243.736,94.55l-1.788,2.9-.588-.277a.915.915,0,0,1,.3-.1,1.326,1.326,0,0,1,.319,0,2.635,2.635,0,0,1,.73.076,1.679,1.679,0,0,1,.638.336,1.6,1.6,0,0,1,.453.63,2.4,2.4,0,0,1,.168.948,2.207,2.207,0,0,1-1.183,2.031,2.518,2.518,0,0,1-2.149.076,2.266,2.266,0,0,1-.839-.52l.5-.839a1.679,1.679,0,0,0,.529.42,1.511,1.511,0,0,0,.705.176,1.486,1.486,0,0,0,.688-.168,1.36,1.36,0,0,0,.5-.5,1.444,1.444,0,0,0,.185-.755,1.2,1.2,0,0,0-.344-.906,1.3,1.3,0,0,0-.932-.336,2.627,2.627,0,0,0-.487,0,1.948,1.948,0,0,0-.369.1h-.042l1.586-2.459.3.134h-2.442V94.55Z" transform="translate(-38.528 -15.55)" fill="#232221"/>
    <path id="Path_88" data-name="Path 88" d="M257.14,99.2a2.208,2.208,0,0,1,.3-1.141,2.165,2.165,0,0,1,.839-.8,2.518,2.518,0,0,1,1.217-.294,2.442,2.442,0,0,1,1.2.294,2.1,2.1,0,0,1,.839.8,2.282,2.282,0,0,1,.285,1.141,2.232,2.232,0,0,1-.285,1.133,2.14,2.14,0,0,1-.839.839,2.518,2.518,0,0,1-1.209.294,2.568,2.568,0,0,1-1.209-.277,2.1,2.1,0,0,1-.839-.781,2.182,2.182,0,0,1-.3-1.209Zm.957,0a1.46,1.46,0,0,0,.185.739,1.385,1.385,0,0,0,.487.52,1.267,1.267,0,0,0,.688.193,1.326,1.326,0,0,0,.705-.193,1.36,1.36,0,0,0,.478-.52,1.544,1.544,0,0,0,.176-.739,1.57,1.57,0,0,0-.176-.739,1.36,1.36,0,0,0-.478-.52,1.318,1.318,0,0,0-1.4,0,1.435,1.435,0,0,0-.487.537,1.5,1.5,0,0,0-.176.722Zm2.518-4.2-1.284,1.36h-.63L259.54,95Z" transform="translate(-41.313 -15.263)" fill="#232221"/>
    <path id="Path_89" data-name="Path 89" d="M268.135,95.3h.965v1.872h1.15v.739H269.1v3.441h-.965V97.91h-.755v-.739h.755Z" transform="translate(-42.959 -15.312)" fill="#232221"/>
    <path id="Path_90" data-name="Path 90" d="M277.453,101.773a2.241,2.241,0,0,1-1.066-.252,1.888,1.888,0,0,1-.772-.747,2.417,2.417,0,0,1-.285-1.2,2.317,2.317,0,0,1,.3-1.217,1.981,1.981,0,0,1,.789-.789A2.25,2.25,0,0,1,277.5,97.3a1.788,1.788,0,0,1,1,.269,1.847,1.847,0,0,1,.621.629l-.067.159.092-.89h.839v4.2h-.906v-1.091l.109.252a1.259,1.259,0,0,1-.193.252,1.957,1.957,0,0,1-.361.319,2.115,2.115,0,0,1-.512.277A2.057,2.057,0,0,1,277.453,101.773Zm.252-.781a1.461,1.461,0,0,0,.646-.134,1.259,1.259,0,0,0,.47-.369,1.478,1.478,0,0,0,.26-.571v-.839a1.335,1.335,0,0,0-.772-.89,1.519,1.519,0,0,0-.621-.126,1.376,1.376,0,0,0-1.2.688,1.494,1.494,0,0,0-.193.764,1.469,1.469,0,0,0,.193.739,1.427,1.427,0,0,0,.52.529,1.385,1.385,0,0,0,.7.21Z" transform="translate(-44.236 -15.633)" fill="#232221"/>
    <rect id="Rectangle_66" data-name="Rectangle 66" width="75.54" height="1" transform="translate(92.746 79)" fill="#232221"/>
    <rect id="Rectangle_67" data-name="Rectangle 67" width="75.54" height="1" transform="translate(245.43 79)" fill="#232221"/>
  </g>
</svg>
